G04*
G04 #@! TF.GenerationSoftware,Altium Limited,Altium Designer,21.3.2 (30)*
G04*
G04 Layer_Color=8388736*
%FSTAX25Y25*%
%MOIN*%
G70*
G04*
G04 #@! TF.SameCoordinates,D88C5563-B55B-4973-966C-210043D782A6*
G04*
G04*
G04 #@! TF.FilePolarity,Negative*
G04*
G01*
G75*
%ADD60R,0.15800X0.03950*%
%ADD61R,0.33438X0.40446*%
%ADD62R,0.18123X0.08280*%
%ADD63R,0.36627X0.40564*%
%ADD64R,0.13595X0.05131*%
%ADD65R,0.07099X0.14580*%
%ADD66R,0.17335X0.22847*%
%ADD67R,0.07296X0.13792*%
%ADD68R,0.07296X0.04540*%
%ADD69R,0.03950X0.03950*%
%ADD70R,0.07950X0.06150*%
%ADD71R,0.06312X0.05524*%
%ADD72R,0.04343X0.02965*%
G04:AMPARAMS|DCode=73|XSize=59.18mil|YSize=204.85mil|CornerRadius=16.8mil|HoleSize=0mil|Usage=FLASHONLY|Rotation=90.000|XOffset=0mil|YOffset=0mil|HoleType=Round|Shape=RoundedRectangle|*
%AMROUNDEDRECTD73*
21,1,0.05918,0.17126,0,0,90.0*
21,1,0.02559,0.20485,0,0,90.0*
1,1,0.03359,0.08563,0.01280*
1,1,0.03359,0.08563,-0.01280*
1,1,0.03359,-0.08563,-0.01280*
1,1,0.03359,-0.08563,0.01280*
%
%ADD73ROUNDEDRECTD73*%
G04:AMPARAMS|DCode=74|XSize=78.87mil|YSize=165.48mil|CornerRadius=12.86mil|HoleSize=0mil|Usage=FLASHONLY|Rotation=90.000|XOffset=0mil|YOffset=0mil|HoleType=Round|Shape=RoundedRectangle|*
%AMROUNDEDRECTD74*
21,1,0.07887,0.13976,0,0,90.0*
21,1,0.05315,0.16548,0,0,90.0*
1,1,0.02572,0.06988,0.02657*
1,1,0.02572,0.06988,-0.02657*
1,1,0.02572,-0.06988,-0.02657*
1,1,0.02572,-0.06988,0.02657*
%
%ADD74ROUNDEDRECTD74*%
%ADD75R,0.03950X0.03950*%
%ADD76R,0.07493X0.07493*%
%ADD77R,0.04737X0.06312*%
%ADD78R,0.02965X0.04343*%
G04:AMPARAMS|DCode=79|XSize=63.51mil|YSize=65.87mil|CornerRadius=10.94mil|HoleSize=0mil|Usage=FLASHONLY|Rotation=270.000|XOffset=0mil|YOffset=0mil|HoleType=Round|Shape=RoundedRectangle|*
%AMROUNDEDRECTD79*
21,1,0.06351,0.04400,0,0,270.0*
21,1,0.04163,0.06587,0,0,270.0*
1,1,0.02188,-0.02200,-0.02082*
1,1,0.02188,-0.02200,0.02082*
1,1,0.02188,0.02200,0.02082*
1,1,0.02188,0.02200,-0.02082*
%
%ADD79ROUNDEDRECTD79*%
%ADD80R,0.10052X0.06902*%
%ADD81R,0.03950X0.04147*%
%ADD82O,0.01981X0.06509*%
%ADD83O,0.06509X0.01981*%
%ADD84R,0.05300X0.04383*%
G04:AMPARAMS|DCode=85|XSize=78.87mil|YSize=165.48mil|CornerRadius=12.86mil|HoleSize=0mil|Usage=FLASHONLY|Rotation=0.000|XOffset=0mil|YOffset=0mil|HoleType=Round|Shape=RoundedRectangle|*
%AMROUNDEDRECTD85*
21,1,0.07887,0.13976,0,0,0.0*
21,1,0.05315,0.16548,0,0,0.0*
1,1,0.02572,0.02657,-0.06988*
1,1,0.02572,-0.02657,-0.06988*
1,1,0.02572,-0.02657,0.06988*
1,1,0.02572,0.02657,0.06988*
%
%ADD85ROUNDEDRECTD85*%
G04:AMPARAMS|DCode=86|XSize=59.18mil|YSize=204.85mil|CornerRadius=16.8mil|HoleSize=0mil|Usage=FLASHONLY|Rotation=0.000|XOffset=0mil|YOffset=0mil|HoleType=Round|Shape=RoundedRectangle|*
%AMROUNDEDRECTD86*
21,1,0.05918,0.17126,0,0,0.0*
21,1,0.02559,0.20485,0,0,0.0*
1,1,0.03359,0.01280,-0.08563*
1,1,0.03359,-0.01280,-0.08563*
1,1,0.03359,-0.01280,0.08563*
1,1,0.03359,0.01280,0.08563*
%
%ADD86ROUNDEDRECTD86*%
%ADD87R,0.04147X0.03950*%
%ADD88R,0.05524X0.05131*%
%ADD89R,0.07493X0.04737*%
G04:AMPARAMS|DCode=90|XSize=63.12mil|YSize=55.24mil|CornerRadius=7.54mil|HoleSize=0mil|Usage=FLASHONLY|Rotation=0.000|XOffset=0mil|YOffset=0mil|HoleType=Round|Shape=RoundedRectangle|*
%AMROUNDEDRECTD90*
21,1,0.06312,0.04016,0,0,0.0*
21,1,0.04803,0.05524,0,0,0.0*
1,1,0.01509,0.02402,-0.02008*
1,1,0.01509,-0.02402,-0.02008*
1,1,0.01509,-0.02402,0.02008*
1,1,0.01509,0.02402,0.02008*
%
%ADD90ROUNDEDRECTD90*%
%ADD91C,0.06706*%
%ADD92R,0.06902X0.10052*%
%ADD93R,0.13438X0.04934*%
%ADD94R,0.34107X0.42257*%
%ADD95R,0.05524X0.06706*%
%ADD96R,0.13202X0.10642*%
%ADD97R,0.14580X0.07099*%
G04:AMPARAMS|DCode=98|XSize=106.42mil|YSize=126.11mil|CornerRadius=28.61mil|HoleSize=0mil|Usage=FLASHONLY|Rotation=90.000|XOffset=0mil|YOffset=0mil|HoleType=Round|Shape=RoundedRectangle|*
%AMROUNDEDRECTD98*
21,1,0.10642,0.06890,0,0,90.0*
21,1,0.04921,0.12611,0,0,90.0*
1,1,0.05721,0.03445,0.02461*
1,1,0.05721,0.03445,-0.02461*
1,1,0.05721,-0.03445,-0.02461*
1,1,0.05721,-0.03445,0.02461*
%
%ADD98ROUNDEDRECTD98*%
%ADD99O,0.12611X0.10642*%
%ADD100C,0.07296*%
%ADD101R,0.07296X0.07296*%
G04:AMPARAMS|DCode=102|XSize=84.77mil|YSize=84.77mil|CornerRadius=23.19mil|HoleSize=0mil|Usage=FLASHONLY|Rotation=270.000|XOffset=0mil|YOffset=0mil|HoleType=Round|Shape=RoundedRectangle|*
%AMROUNDEDRECTD102*
21,1,0.08477,0.03839,0,0,270.0*
21,1,0.03839,0.08477,0,0,270.0*
1,1,0.04639,-0.01919,-0.01919*
1,1,0.04639,-0.01919,0.01919*
1,1,0.04639,0.01919,0.01919*
1,1,0.04639,0.01919,-0.01919*
%
%ADD102ROUNDEDRECTD102*%
%ADD103C,0.08477*%
%ADD104R,0.07099X0.07099*%
%ADD105C,0.07099*%
%ADD106R,0.07099X0.07099*%
%ADD107R,0.12611X0.12611*%
%ADD108C,0.12611*%
%ADD109C,0.09800*%
%ADD110C,0.16548*%
%ADD111C,0.03950*%
%ADD112C,0.04737*%
%ADD113C,0.03398*%
G36*
X0515173Y0434934D02*
X0515174Y0434009D01*
X0514932Y0432176D01*
X0514454Y0430389D01*
X0513746Y0428681D01*
X0512821Y0427079D01*
X0511696Y0425612D01*
X0510388Y0424305D01*
X0508921Y0423179D01*
X0507319Y0422254D01*
X0505611Y0421547D01*
X0503825Y0421068D01*
X0501991Y0420827D01*
X0501067D01*
X0500134Y0420827D01*
X0498283Y042107D01*
X049648Y0421553D01*
X0494756Y0422267D01*
X0493139Y04232D01*
X0491658Y0424336D01*
X0490338Y0425655D01*
X0489202Y0427136D01*
X0488269Y0428752D01*
X0487554Y0430476D01*
X0487071Y0432279D01*
X0486827Y0434129D01*
X0486827Y0435063D01*
X0486827Y043599D01*
X048707Y043783D01*
X0487551Y0439621D01*
X0488263Y0441334D01*
X0489193Y044294D01*
X0490325Y0444409D01*
X0491641Y0445718D01*
X0493116Y0446844D01*
X0494725Y0447766D01*
X0496442Y044847D01*
X0498236Y0448943D01*
X0500076Y0449177D01*
X0501004Y0449173D01*
X0501934Y0449168D01*
X0503778Y0448917D01*
X0505573Y0448428D01*
X050729Y044771D01*
X0508898Y0446774D01*
X0510371Y0445637D01*
X0511684Y0444318D01*
X0512813Y044284D01*
X0513741Y0441227D01*
X0514451Y0439507D01*
X0514931Y0437709D01*
X0515173Y0435864D01*
X0515173Y0434934D01*
D01*
D02*
G37*
G36*
X0824174D02*
X0824174Y0434009D01*
X0823932Y0432176D01*
X0823454Y0430389D01*
X0822746Y0428681D01*
X0821821Y0427079D01*
X0820696Y0425612D01*
X0819388Y0424305D01*
X0817921Y0423179D01*
X0816319Y0422254D01*
X0814611Y0421547D01*
X0812825Y0421068D01*
X0810991Y0420827D01*
X0810067D01*
X0809134Y0420827D01*
X0807283Y042107D01*
X080548Y0421553D01*
X0803756Y0422267D01*
X0802139Y04232D01*
X0800658Y0424336D01*
X0799338Y0425655D01*
X0798202Y0427136D01*
X0797268Y0428752D01*
X0796554Y0430476D01*
X0796071Y0432279D01*
X0795827Y0434129D01*
X0795827Y0435063D01*
X0795827Y043599D01*
X0796069Y043783D01*
X0796551Y0439621D01*
X0797263Y0441334D01*
X0798193Y044294D01*
X0799326Y0444409D01*
X080064Y0445718D01*
X0802116Y0446844D01*
X0803725Y0447766D01*
X0805442Y044847D01*
X0807236Y0448943D01*
X0809076Y0449177D01*
X0810004Y0449173D01*
X0810934Y0449168D01*
X0812778Y0448917D01*
X0814573Y0448428D01*
X081629Y044771D01*
X0817898Y0446774D01*
X0819371Y0445637D01*
X0820684Y0444318D01*
X0821813Y044284D01*
X0822741Y0441227D01*
X0823451Y0439507D01*
X0823931Y0437709D01*
X0824174Y0435864D01*
X0824174Y0434934D01*
D01*
D02*
G37*
G36*
X0515173Y0764534D02*
X0515174Y0763609D01*
X0514932Y0761776D01*
X0514454Y0759989D01*
X0513746Y0758281D01*
X0512821Y0756679D01*
X0511696Y0755212D01*
X0510388Y0753905D01*
X0508921Y0752779D01*
X0507319Y0751854D01*
X0505611Y0751147D01*
X0503825Y0750668D01*
X0501991Y0750427D01*
X0501067D01*
X0500134Y0750427D01*
X0498283Y075067D01*
X049648Y0751153D01*
X0494756Y0751867D01*
X0493139Y07528D01*
X0491658Y0753936D01*
X0490338Y0755255D01*
X0489202Y0756736D01*
X0488269Y0758352D01*
X0487554Y0760076D01*
X0487071Y0761879D01*
X0486827Y0763729D01*
X0486827Y0764663D01*
X0486827Y076559D01*
X048707Y076743D01*
X0487551Y0769221D01*
X0488263Y0770934D01*
X0489193Y077254D01*
X0490325Y0774009D01*
X0491641Y0775318D01*
X0493116Y0776444D01*
X0494725Y0777366D01*
X0496442Y077807D01*
X0498236Y0778543D01*
X0500076Y0778777D01*
X0501004Y0778773D01*
X0501934Y0778768D01*
X0503778Y0778517D01*
X0505573Y0778028D01*
X050729Y077731D01*
X0508898Y0776374D01*
X0510371Y0775237D01*
X0511684Y0773918D01*
X0512813Y077244D01*
X0513741Y0770827D01*
X0514451Y0769107D01*
X0514931Y0767309D01*
X0515173Y0765464D01*
X0515173Y0764534D01*
D01*
D02*
G37*
G36*
X0824174D02*
X0824174Y0763609D01*
X0823932Y0761776D01*
X0823454Y0759989D01*
X0822746Y0758281D01*
X0821821Y0756679D01*
X0820696Y0755212D01*
X0819388Y0753905D01*
X0817921Y0752779D01*
X0816319Y0751854D01*
X0814611Y0751147D01*
X0812825Y0750668D01*
X0810991Y0750427D01*
X0810067D01*
X0809134Y0750427D01*
X0807283Y075067D01*
X080548Y0751153D01*
X0803756Y0751867D01*
X0802139Y07528D01*
X0800658Y0753936D01*
X0799338Y0755255D01*
X0798202Y0756736D01*
X0797268Y0758352D01*
X0796554Y0760076D01*
X0796071Y0761879D01*
X0795827Y0763729D01*
X0795827Y0764663D01*
X0795827Y076559D01*
X0796069Y076743D01*
X0796551Y0769221D01*
X0797263Y0770934D01*
X0798193Y077254D01*
X0799326Y0774009D01*
X080064Y0775318D01*
X0802116Y0776444D01*
X0803725Y0777366D01*
X0805442Y077807D01*
X0807236Y0778543D01*
X0809076Y0778777D01*
X0810004Y0778773D01*
X0810934Y0778768D01*
X0812778Y0778517D01*
X0814573Y0778028D01*
X081629Y077731D01*
X0817898Y0776374D01*
X0819371Y0775237D01*
X0820684Y0773918D01*
X0821813Y077244D01*
X0822741Y0770827D01*
X0823451Y0769107D01*
X0823931Y0767309D01*
X0824174Y0765464D01*
X0824174Y0764534D01*
D01*
D02*
G37*
D60*
X0585002Y0468423D02*
D03*
Y0463423D02*
D03*
Y0458423D02*
D03*
Y0453423D02*
D03*
Y0473423D02*
D03*
Y0478423D02*
D03*
Y0483423D02*
D03*
X0734727Y0468423D02*
D03*
Y0473423D02*
D03*
Y0478423D02*
D03*
Y0483423D02*
D03*
Y0463423D02*
D03*
Y0458423D02*
D03*
Y0453423D02*
D03*
Y0517369D02*
D03*
Y0522368D02*
D03*
Y0527368D02*
D03*
Y0532369D02*
D03*
Y0512368D02*
D03*
Y0507369D02*
D03*
Y0502368D02*
D03*
X0585073Y0516632D02*
D03*
Y0511631D02*
D03*
Y0506632D02*
D03*
Y0501631D02*
D03*
Y0521631D02*
D03*
Y0526631D02*
D03*
Y0531632D02*
D03*
D61*
X054697Y0468423D02*
D03*
X0772758D02*
D03*
Y0517369D02*
D03*
X0547042Y0516632D02*
D03*
D62*
X0744826Y06546D02*
D03*
X0710574D02*
D03*
X0819851Y06255D02*
D03*
X0785599D02*
D03*
D63*
X0797886Y0581976D02*
D03*
D64*
X0759697Y056859D02*
D03*
Y0575283D02*
D03*
Y0581976D02*
D03*
Y0588669D02*
D03*
Y0595362D02*
D03*
D65*
X0657799Y0566622D02*
D03*
Y0588669D02*
D03*
D66*
X068313D02*
D03*
X07225D02*
D03*
X0749457Y0704D02*
D03*
X0710087D02*
D03*
D67*
X0674148Y064045D02*
D03*
D68*
X064836Y0631395D02*
D03*
Y064045D02*
D03*
Y0649505D02*
D03*
D69*
X0667929Y0658543D02*
D03*
X0673835D02*
D03*
X0588749Y0572256D02*
D03*
X0595048D02*
D03*
X0574565D02*
D03*
X0568266D02*
D03*
X055415D02*
D03*
X0547851D02*
D03*
X0588063Y0715053D02*
D03*
X0593968D02*
D03*
X0588063Y0721369D02*
D03*
X0593968D02*
D03*
X0540467Y0726483D02*
D03*
X0546372D02*
D03*
X0540467Y07328D02*
D03*
X0546372D02*
D03*
X0648787Y071024D02*
D03*
X0642488D02*
D03*
X0648787Y07036D02*
D03*
X0642488D02*
D03*
X0657502Y0614321D02*
D03*
X0651596D02*
D03*
D70*
X0661274Y0667D02*
D03*
X0648374D02*
D03*
X0651649Y0606183D02*
D03*
X0664549D02*
D03*
D71*
X0638773Y0588669D02*
D03*
Y0581189D02*
D03*
D72*
X0597106Y0467714D02*
D03*
Y0473423D02*
D03*
X0620634Y0621109D02*
D03*
Y06154D02*
D03*
X0576826Y0621109D02*
D03*
Y06154D02*
D03*
X057051D02*
D03*
Y0621109D02*
D03*
Y06054D02*
D03*
Y0599691D02*
D03*
X06271Y0621054D02*
D03*
Y0615346D02*
D03*
X0694209Y0508592D02*
D03*
Y05143D02*
D03*
X068751Y0508592D02*
D03*
Y05143D02*
D03*
X0631999Y0508115D02*
D03*
Y0513824D02*
D03*
X0625379Y0508115D02*
D03*
Y0513824D02*
D03*
X0597106Y0521631D02*
D03*
Y0515923D02*
D03*
X0547854Y06054D02*
D03*
Y0599691D02*
D03*
X06496Y0726946D02*
D03*
Y0732654D02*
D03*
X06494Y0744154D02*
D03*
Y0738446D02*
D03*
X0628009Y0755195D02*
D03*
Y0760903D02*
D03*
X075961Y0747705D02*
D03*
Y0741996D02*
D03*
X0722387Y0518077D02*
D03*
Y0512368D02*
D03*
Y0463423D02*
D03*
Y0469132D02*
D03*
D73*
X0525Y0612874D02*
D03*
Y0622717D02*
D03*
Y0632559D02*
D03*
Y0642402D02*
D03*
Y0680236D02*
D03*
Y0690079D02*
D03*
Y0699921D02*
D03*
Y0709764D02*
D03*
D74*
X0496457Y0600276D02*
D03*
Y0655D02*
D03*
Y0667638D02*
D03*
Y0722362D02*
D03*
D75*
X06179Y065438D02*
D03*
Y0660285D02*
D03*
X06117Y065438D02*
D03*
Y0660285D02*
D03*
X0700707Y0508886D02*
D03*
Y0514791D02*
D03*
X0618894Y0514344D02*
D03*
Y0508438D02*
D03*
X0547854Y0648307D02*
D03*
Y0642402D02*
D03*
X0541846Y0648307D02*
D03*
Y0642402D02*
D03*
X05698Y0678276D02*
D03*
Y067237D02*
D03*
X0563394Y0678276D02*
D03*
Y067237D02*
D03*
X0541846Y0674331D02*
D03*
Y0680236D02*
D03*
X0547854D02*
D03*
Y0674331D02*
D03*
X05758Y0715426D02*
D03*
Y0721332D02*
D03*
X0582039Y0715418D02*
D03*
Y0721324D02*
D03*
X0610677Y0755195D02*
D03*
Y07611D02*
D03*
X06087Y0744406D02*
D03*
Y07385D02*
D03*
X06308Y0744406D02*
D03*
Y07385D02*
D03*
X06306Y0707747D02*
D03*
Y0713653D02*
D03*
X06244D02*
D03*
Y0707747D02*
D03*
Y0701898D02*
D03*
Y0695992D02*
D03*
X06306D02*
D03*
Y0701898D02*
D03*
X057051Y0633095D02*
D03*
Y0639D02*
D03*
X0576826D02*
D03*
Y0633095D02*
D03*
D76*
X07205Y0489376D02*
D03*
Y0502368D02*
D03*
X0712Y0489376D02*
D03*
Y0502368D02*
D03*
X0714266Y0466415D02*
D03*
Y0453423D02*
D03*
X07056Y0466415D02*
D03*
Y0453423D02*
D03*
X05985Y0496557D02*
D03*
Y0483565D02*
D03*
X06071D02*
D03*
Y0496557D02*
D03*
X05995Y0531632D02*
D03*
Y0544624D02*
D03*
X06081D02*
D03*
Y0531632D02*
D03*
X0759699Y0625496D02*
D03*
Y0612504D02*
D03*
X07681Y0714303D02*
D03*
Y0727295D02*
D03*
D77*
X0700707Y0499771D02*
D03*
X0693227D02*
D03*
X0696967Y049111D02*
D03*
X0622402Y0490401D02*
D03*
X0618662Y0499062D02*
D03*
X0626143D02*
D03*
D78*
X0675621Y0482961D02*
D03*
X0681329D02*
D03*
X0647996Y0482905D02*
D03*
X0653704D02*
D03*
X0681329Y05366D02*
D03*
X0675621D02*
D03*
X0647946Y0536656D02*
D03*
X0653654D02*
D03*
D79*
X0675621Y049064D02*
D03*
X0665621D02*
D03*
Y0528829D02*
D03*
X0675621D02*
D03*
X0653704Y0490636D02*
D03*
X0643704D02*
D03*
Y0528825D02*
D03*
X0653704D02*
D03*
D80*
X0631999Y05254D02*
D03*
X0619401D02*
D03*
X068751Y0525529D02*
D03*
X0700108D02*
D03*
D81*
X0588355Y0578956D02*
D03*
X0595048D02*
D03*
X0567872D02*
D03*
X0574565D02*
D03*
X055415D02*
D03*
X0547458D02*
D03*
X0649181Y0716539D02*
D03*
X0642488D02*
D03*
Y06965D02*
D03*
X0649181D02*
D03*
X0759419Y0767784D02*
D03*
X0766112D02*
D03*
X0759419Y0775D02*
D03*
X0766112D02*
D03*
D82*
X0607748Y0703768D02*
D03*
X060578D02*
D03*
X0603811D02*
D03*
X0601842D02*
D03*
X0599874D02*
D03*
X0597905D02*
D03*
X0595937D02*
D03*
X0593968D02*
D03*
X0592D02*
D03*
X0590031D02*
D03*
X0588063D02*
D03*
X0586095D02*
D03*
Y06705D02*
D03*
X0588063D02*
D03*
X0590031D02*
D03*
X0592D02*
D03*
X0593968D02*
D03*
X0595937D02*
D03*
X0597905D02*
D03*
X0599874D02*
D03*
X0601842D02*
D03*
X0603811D02*
D03*
X060578D02*
D03*
X0607748D02*
D03*
D83*
X0580287Y0697961D02*
D03*
Y0695992D02*
D03*
Y0694024D02*
D03*
Y0692055D02*
D03*
Y0690087D02*
D03*
Y0688118D02*
D03*
Y068615D02*
D03*
Y0684181D02*
D03*
Y0682213D02*
D03*
Y0680244D02*
D03*
Y0678276D02*
D03*
Y0676307D02*
D03*
X0613555D02*
D03*
Y0678276D02*
D03*
Y0680244D02*
D03*
Y0682213D02*
D03*
Y0684181D02*
D03*
Y068615D02*
D03*
Y0688118D02*
D03*
Y0690087D02*
D03*
Y0692055D02*
D03*
Y0694024D02*
D03*
Y0695992D02*
D03*
Y0697961D02*
D03*
D84*
X0567296Y0715426D02*
D03*
Y0728339D02*
D03*
D85*
X0588498Y0776879D02*
D03*
X0533774D02*
D03*
D86*
X05759Y0748336D02*
D03*
X0566057D02*
D03*
X0556215D02*
D03*
X0546372D02*
D03*
D87*
X0646381Y0777426D02*
D03*
Y0770733D02*
D03*
X0499994Y0541153D02*
D03*
Y053446D02*
D03*
X0500094Y0561554D02*
D03*
Y0554861D02*
D03*
X06467Y0755307D02*
D03*
Y0762D02*
D03*
X0740037Y056859D02*
D03*
Y0561897D02*
D03*
X0747443Y056859D02*
D03*
Y0561897D02*
D03*
D88*
X0638634Y0770733D02*
D03*
Y0779001D02*
D03*
X0492094Y0532886D02*
D03*
Y0541153D02*
D03*
X0492194Y0553287D02*
D03*
Y0561554D02*
D03*
X0638634Y0762D02*
D03*
Y0753732D02*
D03*
D89*
X0619206Y0755195D02*
D03*
Y0769761D02*
D03*
D90*
X0615632Y0744406D02*
D03*
X06239D02*
D03*
Y07385D02*
D03*
X0615632D02*
D03*
D91*
X0497072Y0573055D02*
D03*
Y0586055D02*
D03*
X06817Y0731575D02*
D03*
Y0750575D02*
D03*
X06816Y0769576D02*
D03*
D92*
X074305Y0600201D02*
D03*
Y0612799D02*
D03*
X07639Y0667198D02*
D03*
Y06546D02*
D03*
D93*
X0748Y0741012D02*
D03*
Y0747705D02*
D03*
Y0754398D02*
D03*
Y0761091D02*
D03*
Y0767784D02*
D03*
D94*
X0710087Y0754098D02*
D03*
D95*
X0764457Y0555D02*
D03*
X0771543D02*
D03*
D96*
X06844Y0683941D02*
D03*
Y0712288D02*
D03*
D97*
X0780779Y0727295D02*
D03*
X0802826D02*
D03*
D98*
X0802Y065611D02*
D03*
D99*
Y066989D02*
D03*
D100*
X06102Y06154D02*
D03*
X06002D02*
D03*
X06102Y06054D02*
D03*
X06002D02*
D03*
X05902Y06154D02*
D03*
D101*
Y06054D02*
D03*
D102*
X0816Y0503842D02*
D03*
X0503Y0502843D02*
D03*
D103*
X0816Y0484158D02*
D03*
X0503Y0483157D02*
D03*
D104*
X0660474Y07624D02*
D03*
D105*
Y07524D02*
D03*
Y07424D02*
D03*
X0599Y0637D02*
D03*
X0609D02*
D03*
X0619D02*
D03*
D106*
X0589D02*
D03*
D107*
X0802Y0686D02*
D03*
D108*
Y0703717D02*
D03*
D109*
X07781Y065811D02*
D03*
X0780218Y0698071D02*
D03*
D110*
X081Y0435D02*
D03*
X0501D02*
D03*
X081Y07646D02*
D03*
X0501D02*
D03*
D111*
X05469Y04929D02*
D03*
X0535Y0486818D02*
D03*
Y0455D02*
D03*
Y0476D02*
D03*
X0545Y0465D02*
D03*
X06362Y04688D02*
D03*
X0545Y0486818D02*
D03*
Y0454911D02*
D03*
X06196Y04637D02*
D03*
X0545Y0476D02*
D03*
X06075Y04585D02*
D03*
X0535Y0465D02*
D03*
X0569891Y0484002D02*
D03*
X06263Y0555608D02*
D03*
X07446Y06465D02*
D03*
X0740037Y0581879D02*
D03*
X0670499Y05562D02*
D03*
X06665Y0682313D02*
D03*
X06612Y06302D02*
D03*
X066788Y06516D02*
D03*
X06555Y0657663D02*
D03*
X06145Y0567D02*
D03*
X0752699Y0612504D02*
D03*
X079Y0425D02*
D03*
X077D02*
D03*
X0750119D02*
D03*
X073D02*
D03*
X071D02*
D03*
X069D02*
D03*
X067D02*
D03*
X065D02*
D03*
X063D02*
D03*
X061D02*
D03*
X078Y0433968D02*
D03*
X076Y0434227D02*
D03*
X074D02*
D03*
X072D02*
D03*
X07D02*
D03*
X068048D02*
D03*
X066D02*
D03*
X064D02*
D03*
X062D02*
D03*
Y045D02*
D03*
X06Y0434227D02*
D03*
X0493932Y0512306D02*
D03*
X0516Y0547D02*
D03*
X052Y0563916D02*
D03*
X0530743Y0430817D02*
D03*
X05087Y05421D02*
D03*
X0515Y0476D02*
D03*
X0505D02*
D03*
X04876Y05266D02*
D03*
X055098Y0442168D02*
D03*
X0535Y0492994D02*
D03*
X0525Y0486818D02*
D03*
X056524Y0492763D02*
D03*
X0505Y051D02*
D03*
X0503Y0492994D02*
D03*
X0515D02*
D03*
X0525D02*
D03*
X0816Y04928D02*
D03*
X0805D02*
D03*
X0795D02*
D03*
X0785D02*
D03*
X0775D02*
D03*
X0765D02*
D03*
X0746Y0495D02*
D03*
X0795Y0533564D02*
D03*
X0805Y051D02*
D03*
Y0522329D02*
D03*
X0795D02*
D03*
Y051D02*
D03*
X0785Y0533564D02*
D03*
Y0522329D02*
D03*
Y051D02*
D03*
X0775D02*
D03*
Y0522329D02*
D03*
Y0533564D02*
D03*
X0765D02*
D03*
Y0522329D02*
D03*
Y051D02*
D03*
Y0499158D02*
D03*
X0775D02*
D03*
X0785D02*
D03*
X0795D02*
D03*
X0805D02*
D03*
Y0455D02*
D03*
X0795D02*
D03*
X0785D02*
D03*
X0775D02*
D03*
X0765D02*
D03*
X0816Y0465D02*
D03*
X0805D02*
D03*
X0795D02*
D03*
X0785D02*
D03*
X0775D02*
D03*
X0765D02*
D03*
X0816Y0475D02*
D03*
X0805D02*
D03*
X0795D02*
D03*
X0785D02*
D03*
X0775D02*
D03*
X0765D02*
D03*
Y0484158D02*
D03*
X0775D02*
D03*
X0785D02*
D03*
X0795D02*
D03*
X0805D02*
D03*
X075Y04582D02*
D03*
X07174Y05179D02*
D03*
X0525Y053D02*
D03*
X0535D02*
D03*
Y052D02*
D03*
X0525D02*
D03*
X05154D02*
D03*
X0515Y051D02*
D03*
X0535D02*
D03*
X0525D02*
D03*
X0515Y0500147D02*
D03*
X0525Y05D02*
D03*
X0535D02*
D03*
X0525Y0455D02*
D03*
Y0465D02*
D03*
X0515D02*
D03*
X0525Y0476D02*
D03*
X0515Y0486818D02*
D03*
X06364Y0701898D02*
D03*
X0643634Y0747D02*
D03*
Y0739983D02*
D03*
X05759Y0728839D02*
D03*
X0570156Y0526631D02*
D03*
X06075Y0467714D02*
D03*
X06081Y0506768D02*
D03*
X06853Y04884D02*
D03*
X06657Y04835D02*
D03*
X06813Y04767D02*
D03*
X0636Y04904D02*
D03*
X07119Y04784D02*
D03*
X0687Y0536662D02*
D03*
X07119Y05276D02*
D03*
X07501Y04994D02*
D03*
X0581Y0572D02*
D03*
X06077Y0723D02*
D03*
X06204Y07169D02*
D03*
X05581Y06725D02*
D03*
X06545Y07165D02*
D03*
X06539Y06965D02*
D03*
X04891Y05468D02*
D03*
X063Y06716D02*
D03*
Y0682213D02*
D03*
Y0677307D02*
D03*
X06077Y07161D02*
D03*
X05674Y07104D02*
D03*
X05662Y06844D02*
D03*
X05615Y064165D02*
D03*
Y06325D02*
D03*
X05618Y06508D02*
D03*
X0628009Y07736D02*
D03*
X06533Y07773D02*
D03*
X06818Y07227D02*
D03*
X0523Y05918D02*
D03*
X0514782D02*
D03*
X05027Y06076D02*
D03*
X07713Y0775005D02*
D03*
X05882Y05846D02*
D03*
X05682D02*
D03*
X05472D02*
D03*
X0548Y06107D02*
D03*
X0545Y0668D02*
D03*
X0549Y0664D02*
D03*
X0553Y066D02*
D03*
X0557Y0656D02*
D03*
X057051Y064679D02*
D03*
X0628009Y0766D02*
D03*
X05546Y06324D02*
D03*
X05647Y0607562D02*
D03*
X05771Y06013D02*
D03*
X05531Y06054D02*
D03*
X06178Y0666D02*
D03*
X0588Y07271D02*
D03*
X0547854Y06854D02*
D03*
X0546372Y07213D02*
D03*
X06364Y0707747D02*
D03*
X073488Y0612799D02*
D03*
X07713Y0767784D02*
D03*
X0768Y07026D02*
D03*
X07355Y0741D02*
D03*
X0790599Y06335D02*
D03*
X0783328D02*
D03*
X0797999Y06268D02*
D03*
Y06335D02*
D03*
D112*
X0700254Y0537991D02*
D03*
X06234Y05448D02*
D03*
X0778029Y0555D02*
D03*
X06928Y04536D02*
D03*
X0735Y0495D02*
D03*
X0746Y0477623D02*
D03*
X081876Y0695882D02*
D03*
Y0706418D02*
D03*
Y07169D02*
D03*
Y0727295D02*
D03*
Y07386D02*
D03*
X0740037Y0554D02*
D03*
X05852Y04923D02*
D03*
X0573732Y0501631D02*
D03*
X0685Y0453689D02*
D03*
X06928Y0466415D02*
D03*
X0603Y0524D02*
D03*
X061D02*
D03*
X0603Y0476D02*
D03*
X061D02*
D03*
X07109Y05162D02*
D03*
X0711016Y05101D02*
D03*
X07475Y05325D02*
D03*
X0807826Y07169D02*
D03*
X0798574Y07386D02*
D03*
X0807826D02*
D03*
D113*
X0814331Y0424567D02*
D03*
X0799567Y0430669D02*
D03*
X0805669Y0445433D02*
D03*
X0820433Y0439331D02*
D03*
X0799567D02*
D03*
X0814331Y0445433D02*
D03*
X0820433Y0430669D02*
D03*
X0805669Y0424567D02*
D03*
X0505331D02*
D03*
X0490567Y0430669D02*
D03*
X0496669Y0445433D02*
D03*
X0511433Y0439331D02*
D03*
X0490567D02*
D03*
X0505331Y0445433D02*
D03*
X0511433Y0430669D02*
D03*
X0496669Y0424567D02*
D03*
X0805669Y0754167D02*
D03*
X0820433Y0760269D02*
D03*
X0814331Y0775033D02*
D03*
X0799567Y0768931D02*
D03*
X0820433D02*
D03*
X0805669Y0775033D02*
D03*
X0799567Y0760269D02*
D03*
X0814331Y0754167D02*
D03*
X0505331D02*
D03*
X0490567Y0760269D02*
D03*
X0496669Y0775033D02*
D03*
X0511433Y0768931D02*
D03*
X0490567D02*
D03*
X0505331Y0775033D02*
D03*
X0511433Y0760269D02*
D03*
X0496669Y0754167D02*
D03*
M02*
