M48
;Layer_Color=9474304
;FILE_FORMAT=2:5
INCH,LZ
;TYPE=PLATED
T1F00S00C0.01299
T2F00S00C0.01575
T3F00S00C0.01968
T4F00S00C0.04331
T5F00S00C0.05118
T6F00S00C0.05906
T7F00S00C0.07874
T8F00S00C0.12598
%
T01
X0490567Y0430669
Y0439331
X0496669Y0445433
X0505331
X0511433Y0439331
Y0430669
X0505331Y0424567
X0496669
X0799567Y0430669
Y0439331
X0805669Y0445433
X0814331
X0820433Y0439331
Y0430669
X0814331Y0424567
X0805669
X0505331Y0754167
X0496669
X0490567Y0760269
Y0768931
X0496669Y0775033
X0505331
X0511433Y0768931
Y0760269
X0799567
Y0768931
X0805669Y0775033
X0814331
X0820433Y0768931
Y0760269
X0814331Y0754167
X0805669
T02
X0530743Y0430817
X0535Y0455
Y0465
X0545
Y0454911
X055098Y0442168
X0525Y0455
Y0465
X0515
X06075Y0467714
Y04585
X06196Y04637
X062Y045
Y0434227
X061Y0425
X06Y0434227
X063Y0425
X064Y0434227
X065Y0425
X066Y0434227
X067Y0425
X068048Y0434227
X069Y0425
X07Y0434227
X071Y0425
X072Y0434227
X073Y0425
X074Y0434227
X0750119Y0425
X076Y0434227
X077Y0425
X078Y0433968
X0775Y0455
X0765
Y0465
X0775
X075Y04582
X0785Y0455
X0795
X0805
Y0465
X0795
X0785
X0816
X079Y0425
X0795Y0475
Y0484158
Y04928
Y0499158
X0785
Y04928
Y0484158
Y0475
X0805
Y0484158
Y04928
Y0499158
Y051
X0795
X0785
Y0522329
X0795
X0805
X0795Y0533564
X0785
X0816Y04928
Y0475
X0775
Y0484158
Y04928
Y0499158
X0765
Y04928
Y0484158
Y0475
Y051
X0775
Y0522329
X0765
Y0533564
X0775
X07501Y04994
X0746Y0495
X07119Y04784
X06813Y04767
X06853Y04884
X06657Y04835
X0636Y04904
X06362Y04688
X06263Y0555608
X0670499Y05562
X0687Y0536662
X07119Y05276
X07174Y05179
X0740037Y0581879
X073488Y0612799
X0752699Y0612504
X06145Y0567
X0581Y0572
X05882Y05846
X05682
X05472
X05531Y06054
X0548Y06107
X05647Y0607562
X05771Y06013
X0523Y05918
X0514782
X05027Y06076
X052Y0563916
X0516Y0547
X05087Y05421
X04891Y05468
X04876Y05266
X0493932Y0512306
X0505Y051
X0515
Y0500147
Y0492994
Y0486818
X0525
Y0492994
Y05
Y051
Y052
X05154
X0525Y053
X0535
Y052
Y051
Y05
Y0492994
Y0486818
X0545
Y0476
X0535
X0525
X0515
X0505
X0503Y0492994
X056524Y0492763
X0569891Y0484002
X0570156Y0526631
X06081Y0506768
X06178Y0666
X06204Y07169
X06077Y07161
Y0723
X0588Y07271
X05759Y0728839
X05674Y07104
X05662Y06844
X0547854Y06854
X0545Y0668
X0549Y0664
X0553Y066
X0557Y0656
X05618Y06508
X05615Y064165
Y06325
X05546Y06324
X057051Y064679
X05581Y06725
X0546372Y07213
X06364Y0707747
Y0701898
X06539Y06965
X06545Y07165
X06818Y07227
X06665Y0682313
X066788Y06516
X06555Y0657663
X06612Y06302
X063Y06716
Y0677307
Y0682213
X0628009Y0766
Y07736
X06533Y07773
X07355Y0741
X07713Y0767784
Y0775005
X0768Y07026
X07446Y06465
X0783328Y06335
X0790599
X0797999
Y06268
T03
X0685Y0453689
X06928Y04536
Y0466415
X0711016Y05101
X07109Y05162
X0700254Y0537991
X07475Y05325
X0740037Y0554
X0778029Y0555
X0735Y0495
X0746Y0477623
X061Y0476
X0603
X05852Y04923
X0573732Y0501631
X05474Y04924
X0603Y0524
X061
X06234Y05448
X0643634Y0739983
Y0747
X0798574Y07386
X0807826
X081876
Y0727295
Y07169
Y0706418
Y0695882
X0807826Y07169
T04
X05902Y06054
X06002
Y06154
X06102
Y06054
X05902Y06154
X0589Y0637
X0599
X0609
X0619
X0660474Y07424
Y07524
Y07624
T05
X0816Y0484158
Y0503842
X0503Y0502843
Y0483157
T06
X07781Y065811
X0780218Y0698071
X0802Y066989
Y065611
T07
X0802Y0686
Y0703717
T08
X0501Y0435
X081
X0501Y07646
X081
M30
