G04*
G04 #@! TF.GenerationSoftware,Altium Limited,Altium Designer,21.3.2 (30)*
G04*
G04 Layer_Color=16711935*
%FSTAX25Y25*%
%MOIN*%
G70*
G04*
G04 #@! TF.SameCoordinates,3AB95325-1BB8-4468-B31D-F8521517AB43*
G04*
G04*
G04 #@! TF.FilePolarity,Negative*
G04*
G01*
G75*
G04:AMPARAMS|DCode=98|XSize=106.42mil|YSize=126.11mil|CornerRadius=28.61mil|HoleSize=0mil|Usage=FLASHONLY|Rotation=90.000|XOffset=0mil|YOffset=0mil|HoleType=Round|Shape=RoundedRectangle|*
%AMROUNDEDRECTD98*
21,1,0.10642,0.06890,0,0,90.0*
21,1,0.04921,0.12611,0,0,90.0*
1,1,0.05721,0.03445,0.02461*
1,1,0.05721,0.03445,-0.02461*
1,1,0.05721,-0.03445,-0.02461*
1,1,0.05721,-0.03445,0.02461*
%
%ADD98ROUNDEDRECTD98*%
%ADD99O,0.12611X0.10642*%
%ADD100C,0.07296*%
%ADD101R,0.07296X0.07296*%
G04:AMPARAMS|DCode=102|XSize=84.77mil|YSize=84.77mil|CornerRadius=23.19mil|HoleSize=0mil|Usage=FLASHONLY|Rotation=270.000|XOffset=0mil|YOffset=0mil|HoleType=Round|Shape=RoundedRectangle|*
%AMROUNDEDRECTD102*
21,1,0.08477,0.03839,0,0,270.0*
21,1,0.03839,0.08477,0,0,270.0*
1,1,0.04639,-0.01919,-0.01919*
1,1,0.04639,-0.01919,0.01919*
1,1,0.04639,0.01919,0.01919*
1,1,0.04639,0.01919,-0.01919*
%
%ADD102ROUNDEDRECTD102*%
%ADD103C,0.08477*%
%ADD104R,0.07099X0.07099*%
%ADD105C,0.07099*%
%ADD106R,0.07099X0.07099*%
%ADD107R,0.12611X0.12611*%
%ADD108C,0.12611*%
%ADD109C,0.09800*%
%ADD111C,0.03950*%
%ADD112C,0.04737*%
%ADD113C,0.03398*%
%ADD143C,0.28359*%
D98*
X0802Y065611D02*
D03*
D99*
Y066989D02*
D03*
D100*
X06102Y06154D02*
D03*
X06002D02*
D03*
X06102Y06054D02*
D03*
X06002D02*
D03*
X05902Y06154D02*
D03*
D101*
Y06054D02*
D03*
D102*
X0816Y0503842D02*
D03*
X0503Y0502843D02*
D03*
D103*
X0816Y0484158D02*
D03*
X0503Y0483157D02*
D03*
D104*
X0660474Y07624D02*
D03*
D105*
Y07524D02*
D03*
Y07424D02*
D03*
X0599Y0637D02*
D03*
X0609D02*
D03*
X0619D02*
D03*
D106*
X0589D02*
D03*
D107*
X0802Y0686D02*
D03*
D108*
Y0703717D02*
D03*
D109*
X07781Y065811D02*
D03*
X0780218Y0698071D02*
D03*
D111*
X05469Y04929D02*
D03*
X0535Y0486818D02*
D03*
Y0455D02*
D03*
Y0476D02*
D03*
X0545Y0465D02*
D03*
X06362Y04688D02*
D03*
X0545Y0486818D02*
D03*
Y0454911D02*
D03*
X06196Y04637D02*
D03*
X0545Y0476D02*
D03*
X06075Y04585D02*
D03*
X0535Y0465D02*
D03*
X0569891Y0484002D02*
D03*
X06263Y0555608D02*
D03*
X07446Y06465D02*
D03*
X0740037Y0581879D02*
D03*
X0670499Y05562D02*
D03*
X06665Y0682313D02*
D03*
X06612Y06302D02*
D03*
X066788Y06516D02*
D03*
X06555Y0657663D02*
D03*
X06145Y0567D02*
D03*
X0752699Y0612504D02*
D03*
X079Y0425D02*
D03*
X077D02*
D03*
X0750119D02*
D03*
X073D02*
D03*
X071D02*
D03*
X069D02*
D03*
X067D02*
D03*
X065D02*
D03*
X063D02*
D03*
X061D02*
D03*
X078Y0433968D02*
D03*
X076Y0434227D02*
D03*
X074D02*
D03*
X072D02*
D03*
X07D02*
D03*
X068048D02*
D03*
X066D02*
D03*
X064D02*
D03*
X062D02*
D03*
Y045D02*
D03*
X06Y0434227D02*
D03*
X0493932Y0512306D02*
D03*
X0516Y0547D02*
D03*
X052Y0563916D02*
D03*
X0530743Y0430817D02*
D03*
X05087Y05421D02*
D03*
X0515Y0476D02*
D03*
X0505D02*
D03*
X04876Y05266D02*
D03*
X055098Y0442168D02*
D03*
X0535Y0492994D02*
D03*
X0525Y0486818D02*
D03*
X056524Y0492763D02*
D03*
X0505Y051D02*
D03*
X0503Y0492994D02*
D03*
X0515D02*
D03*
X0525D02*
D03*
X0816Y04928D02*
D03*
X0805D02*
D03*
X0795D02*
D03*
X0785D02*
D03*
X0775D02*
D03*
X0765D02*
D03*
X0746Y0495D02*
D03*
X0795Y0533564D02*
D03*
X0805Y051D02*
D03*
Y0522329D02*
D03*
X0795D02*
D03*
Y051D02*
D03*
X0785Y0533564D02*
D03*
Y0522329D02*
D03*
Y051D02*
D03*
X0775D02*
D03*
Y0522329D02*
D03*
Y0533564D02*
D03*
X0765D02*
D03*
Y0522329D02*
D03*
Y051D02*
D03*
Y0499158D02*
D03*
X0775D02*
D03*
X0785D02*
D03*
X0795D02*
D03*
X0805D02*
D03*
Y0455D02*
D03*
X0795D02*
D03*
X0785D02*
D03*
X0775D02*
D03*
X0765D02*
D03*
X0816Y0465D02*
D03*
X0805D02*
D03*
X0795D02*
D03*
X0785D02*
D03*
X0775D02*
D03*
X0765D02*
D03*
X0816Y0475D02*
D03*
X0805D02*
D03*
X0795D02*
D03*
X0785D02*
D03*
X0775D02*
D03*
X0765D02*
D03*
Y0484158D02*
D03*
X0775D02*
D03*
X0785D02*
D03*
X0795D02*
D03*
X0805D02*
D03*
X075Y04582D02*
D03*
X07174Y05179D02*
D03*
X0525Y053D02*
D03*
X0535D02*
D03*
Y052D02*
D03*
X0525D02*
D03*
X05154D02*
D03*
X0515Y051D02*
D03*
X0535D02*
D03*
X0525D02*
D03*
X0515Y0500147D02*
D03*
X0525Y05D02*
D03*
X0535D02*
D03*
X0525Y0455D02*
D03*
Y0465D02*
D03*
X0515D02*
D03*
X0525Y0476D02*
D03*
X0515Y0486818D02*
D03*
X06364Y0701898D02*
D03*
X0643634Y0747D02*
D03*
Y0739983D02*
D03*
X05759Y0728839D02*
D03*
X0570156Y0526631D02*
D03*
X06075Y0467714D02*
D03*
X06081Y0506768D02*
D03*
X06853Y04884D02*
D03*
X06657Y04835D02*
D03*
X06813Y04767D02*
D03*
X0636Y04904D02*
D03*
X07119Y04784D02*
D03*
X0687Y0536662D02*
D03*
X07119Y05276D02*
D03*
X07501Y04994D02*
D03*
X0581Y0572D02*
D03*
X06077Y0723D02*
D03*
X06204Y07169D02*
D03*
X05581Y06725D02*
D03*
X06545Y07165D02*
D03*
X06539Y06965D02*
D03*
X04891Y05468D02*
D03*
X063Y06716D02*
D03*
Y0682213D02*
D03*
Y0677307D02*
D03*
X06077Y07161D02*
D03*
X05674Y07104D02*
D03*
X05662Y06844D02*
D03*
X05615Y064165D02*
D03*
Y06325D02*
D03*
X05618Y06508D02*
D03*
X0628009Y07736D02*
D03*
X06533Y07773D02*
D03*
X06818Y07227D02*
D03*
X0523Y05918D02*
D03*
X0514782D02*
D03*
X05027Y06076D02*
D03*
X07713Y0775005D02*
D03*
X05882Y05846D02*
D03*
X05682D02*
D03*
X05472D02*
D03*
X0548Y06107D02*
D03*
X0545Y0668D02*
D03*
X0549Y0664D02*
D03*
X0553Y066D02*
D03*
X0557Y0656D02*
D03*
X057051Y064679D02*
D03*
X0628009Y0766D02*
D03*
X05546Y06324D02*
D03*
X05647Y0607562D02*
D03*
X05771Y06013D02*
D03*
X05531Y06054D02*
D03*
X06178Y0666D02*
D03*
X0588Y07271D02*
D03*
X0547854Y06854D02*
D03*
X0546372Y07213D02*
D03*
X06364Y0707747D02*
D03*
X073488Y0612799D02*
D03*
X07713Y0767784D02*
D03*
X0768Y07026D02*
D03*
X07355Y0741D02*
D03*
X0790599Y06335D02*
D03*
X0783328D02*
D03*
X0797999Y06268D02*
D03*
Y06335D02*
D03*
D112*
X0700254Y0537991D02*
D03*
X06234Y05448D02*
D03*
X0778029Y0555D02*
D03*
X06928Y04536D02*
D03*
X0735Y0495D02*
D03*
X0746Y0477623D02*
D03*
X081876Y0695882D02*
D03*
Y0706418D02*
D03*
Y07169D02*
D03*
Y0727295D02*
D03*
Y07386D02*
D03*
X0740037Y0554D02*
D03*
X05852Y04923D02*
D03*
X0573732Y0501631D02*
D03*
X0685Y0453689D02*
D03*
X06928Y0466415D02*
D03*
X0603Y0524D02*
D03*
X061D02*
D03*
X0603Y0476D02*
D03*
X061D02*
D03*
X07109Y05162D02*
D03*
X0711016Y05101D02*
D03*
X07475Y05325D02*
D03*
X0807826Y07169D02*
D03*
X0798574Y07386D02*
D03*
X0807826D02*
D03*
D113*
X0814331Y0424567D02*
D03*
X0799567Y0430669D02*
D03*
X0805669Y0445433D02*
D03*
X0820433Y0439331D02*
D03*
X0799567D02*
D03*
X0814331Y0445433D02*
D03*
X0820433Y0430669D02*
D03*
X0805669Y0424567D02*
D03*
X0505331D02*
D03*
X0490567Y0430669D02*
D03*
X0496669Y0445433D02*
D03*
X0511433Y0439331D02*
D03*
X0490567D02*
D03*
X0505331Y0445433D02*
D03*
X0511433Y0430669D02*
D03*
X0496669Y0424567D02*
D03*
X0805669Y0754167D02*
D03*
X0820433Y0760269D02*
D03*
X0814331Y0775033D02*
D03*
X0799567Y0768931D02*
D03*
X0820433D02*
D03*
X0805669Y0775033D02*
D03*
X0799567Y0760269D02*
D03*
X0814331Y0754167D02*
D03*
X0505331D02*
D03*
X0490567Y0760269D02*
D03*
X0496669Y0775033D02*
D03*
X0511433Y0768931D02*
D03*
X0490567D02*
D03*
X0505331Y0775033D02*
D03*
X0511433Y0760269D02*
D03*
X0496669Y0754167D02*
D03*
D143*
X081Y0435D02*
D03*
X0501D02*
D03*
X081Y07646D02*
D03*
X0501D02*
D03*
M02*
