G04*
G04 #@! TF.GenerationSoftware,Altium Limited,Altium Designer,21.3.2 (30)*
G04*
G04 Layer_Color=32768*
%FSTAX25Y25*%
%MOIN*%
G70*
G04*
G04 #@! TF.SameCoordinates,3AB95325-1BB8-4468-B31D-F8521517AB43*
G04*
G04*
G04 #@! TF.FilePolarity,Positive*
G04*
G01*
G75*
%ADD14C,0.00394*%
%ADD144C,0.00197*%
%ADD150C,0.00200*%
D14*
X07845Y0580008D02*
Y0583945D01*
X0782531Y0581976D02*
X0786469D01*
X0752315Y0560323D02*
X0816685D01*
X0752315Y060363D02*
X0816685D01*
Y0560323D02*
Y060363D01*
X0752315Y0560323D02*
Y060363D01*
X0702815Y0586701D02*
Y0590638D01*
X0700846Y0588669D02*
X0704783D01*
X0672992Y0615047D02*
X0732638D01*
X0672992Y0562291D02*
X0732638D01*
X0672992D02*
Y0615047D01*
X0732638Y0562291D02*
Y0615047D01*
X0661254Y0638482D02*
Y0642418D01*
X0659285Y064045D02*
X0663223D01*
X0644226Y0626277D02*
X0678281D01*
X0644226Y0654623D02*
X0678281D01*
Y0626277D02*
Y0654623D01*
X0644226Y0626277D02*
Y0654623D01*
X0595335Y0470569D02*
X0598878D01*
X0597106Y0468797D02*
Y047234D01*
X0620634Y0616483D02*
Y0620026D01*
X0618862Y0618254D02*
X0622405D01*
X0575054D02*
X0578598D01*
X0576826Y0616483D02*
Y0620026D01*
X057051Y0616483D02*
Y0620026D01*
X0568738Y0618254D02*
X0572282D01*
X057051Y0600774D02*
Y0604317D01*
X0568738Y0602546D02*
X0572282D01*
X06271Y0616428D02*
Y0619972D01*
X0625328Y06182D02*
X0628872D01*
X0692437Y0511446D02*
X0695981D01*
X0694209Y0509675D02*
Y0513218D01*
X0685738Y0511446D02*
X0689282D01*
X068751Y0509675D02*
Y0513218D01*
X0678475Y0481189D02*
Y0484733D01*
X0676703Y0482961D02*
X0680246D01*
X0649078Y0482905D02*
X0652622D01*
X065085Y0481134D02*
Y0484677D01*
X0678475Y0534828D02*
Y0538372D01*
X0676703Y05366D02*
X0680246D01*
X06508Y0534884D02*
Y0538428D01*
X0649028Y0536656D02*
X0652572D01*
X0630228Y0510969D02*
X0633771D01*
X0631999Y0509198D02*
Y0512741D01*
X0623608Y0510969D02*
X0627151D01*
X0625379Y0509198D02*
Y0512741D01*
X0637708Y051851D02*
Y053229D01*
X0613692Y051851D02*
Y053229D01*
Y051851D02*
X0637708D01*
X0613692Y053229D02*
X0637708D01*
X0623732Y05254D02*
X0627669D01*
X06257Y0523431D02*
Y0527368D01*
X0597106Y0517005D02*
Y0520549D01*
X0595335Y0518777D02*
X0598878D01*
X0591702Y0577184D02*
Y0580727D01*
X058993Y0578956D02*
X0593474D01*
X05856Y058181D02*
X0597804D01*
X05856Y0576101D02*
X0597804D01*
X05856D02*
Y058181D01*
X0597804Y0576101D02*
Y058181D01*
X0571219Y0577184D02*
Y0580727D01*
X0569447Y0578956D02*
X057299D01*
X0565116Y058181D02*
X0577321D01*
X0565116Y0576101D02*
X0577321D01*
X0565116D02*
Y058181D01*
X0577321Y0576101D02*
Y058181D01*
X0556906Y0576101D02*
Y058181D01*
X0544702Y0576101D02*
Y058181D01*
Y0576101D02*
X0556906D01*
X0544702Y058181D02*
X0556906D01*
X0549032Y0578956D02*
X0552576D01*
X0550804Y0577184D02*
Y0580727D01*
X0546083Y0602546D02*
X0549626D01*
X0547854Y0600774D02*
Y0604317D01*
X0596921Y0685165D02*
Y0689102D01*
X0594953Y0687134D02*
X059889D01*
X0562768Y0730544D02*
X0571823D01*
X0562768Y0713221D02*
X0571823D01*
Y0730544D01*
X0562768Y0713221D02*
Y0730544D01*
X0567296Y0719914D02*
Y0723851D01*
X0565327Y0721883D02*
X0569264D01*
X06496Y0728028D02*
Y0731572D01*
X0647828Y07298D02*
X0651372D01*
X0647628Y07413D02*
X0651172D01*
X06494Y0739528D02*
Y0743072D01*
X0644609Y077408D02*
X0648152D01*
X0646381Y0772308D02*
Y0775851D01*
X0649235Y0767977D02*
Y0780182D01*
X0643526Y0767977D02*
Y0780182D01*
X0649235D01*
X0643526Y0767977D02*
X0649235D01*
X0628009Y0756277D02*
Y0759821D01*
X0626238Y0758049D02*
X0629781D01*
X0645834Y0714767D02*
Y071831D01*
X0644063Y0716539D02*
X0647606D01*
X0639732Y0713684D02*
X0651937D01*
X0639732Y0719393D02*
X0651937D01*
Y0713684D02*
Y0719393D01*
X0639732Y0713684D02*
Y0719393D01*
Y0693646D02*
Y0699354D01*
X0651937Y0693646D02*
Y0699354D01*
X0639732D02*
X0651937D01*
X0639732Y0693646D02*
X0651937D01*
X0644063Y06965D02*
X0647606D01*
X0645834Y0694728D02*
Y0698272D01*
X049714Y0543909D02*
X0502849D01*
X049714Y0531705D02*
X0502849D01*
Y0543909D01*
X049714Y0531705D02*
Y0543909D01*
X0499994Y0536035D02*
Y0539578D01*
X0498223Y0537807D02*
X0501766D01*
X049724Y056431D02*
X0502949D01*
X049724Y0552106D02*
X0502949D01*
Y056431D01*
X049724Y0552106D02*
Y056431D01*
X0500094Y0556436D02*
Y0559979D01*
X0498323Y0558208D02*
X0501866D01*
X0644928Y0758653D02*
X0648472D01*
X06467Y0756882D02*
Y0760425D01*
X0643846Y0752551D02*
Y0764756D01*
X0649554Y0752551D02*
Y0764756D01*
X0643846Y0752551D02*
X0649554D01*
X0643846Y0764756D02*
X0649554D01*
X0741081Y06065D02*
X0745018D01*
X074305Y0604531D02*
Y0608468D01*
X073616Y0594492D02*
Y0618508D01*
X0749939Y0594492D02*
Y0618508D01*
X073616Y0594492D02*
X0749939D01*
X073616Y0618508D02*
X0749939D01*
X0738265Y0565244D02*
X0741808D01*
X0740037Y0563472D02*
Y0567016D01*
X0742891Y0559141D02*
Y0571346D01*
X0737182Y0559141D02*
Y0571346D01*
X0742891D01*
X0737182Y0559141D02*
X0742891D01*
X0745672Y0565244D02*
X0749215D01*
X0747443Y0563472D02*
Y0567016D01*
X0750298Y0559141D02*
Y0571346D01*
X0744589Y0559141D02*
Y0571346D01*
X0750298D01*
X0744589Y0559141D02*
X0750298D01*
X0774988Y0551063D02*
Y0558937D01*
X0761012Y0551063D02*
Y0558937D01*
Y0551063D02*
X0774988D01*
X0761012Y0558937D02*
X0774988D01*
X0768Y0553031D02*
Y0556968D01*
X0766032Y0555D02*
X0769969D01*
X0682432Y0698114D02*
X0686369D01*
X06844Y0696146D02*
Y0700083D01*
X0670424Y0676953D02*
Y0719276D01*
X0698376Y0676953D02*
Y0719276D01*
X0670424Y0676953D02*
X0698376D01*
X0670424Y0719276D02*
X0698376D01*
X0759594Y0677622D02*
Y0730378D01*
X0699949Y0677622D02*
Y0730378D01*
Y0677622D02*
X0759594D01*
X0699949Y0730378D02*
X0759594D01*
X0727803Y0704D02*
X073174D01*
X0729772Y0702032D02*
Y0705969D01*
X0761932Y0660899D02*
X0765869D01*
X07639Y0658931D02*
Y0662868D01*
X077079Y0648891D02*
Y0672907D01*
X075701Y0648891D02*
Y0672907D01*
X077079D01*
X075701Y0648891D02*
X077079D01*
X075961Y0743079D02*
Y0746623D01*
X0757838Y0744851D02*
X0761381D01*
X0756663Y076493D02*
Y0770638D01*
X0768868Y076493D02*
Y0770638D01*
X0756663D02*
X0768868D01*
X0756663Y076493D02*
X0768868D01*
X0760994Y0767784D02*
X0764537D01*
X0762765Y0766012D02*
Y0769556D01*
X0762765Y0773228D02*
Y0776772D01*
X0760994Y0775D02*
X0764537D01*
X0756663Y0777854D02*
X0768868D01*
X0756663Y0772146D02*
X0768868D01*
X0756663D02*
Y0777854D01*
X0768868Y0772146D02*
Y0777854D01*
X0681801Y0518639D02*
Y0532419D01*
X0705817Y0518639D02*
Y0532419D01*
X0681801D02*
X0705817D01*
X0681801Y0518639D02*
X0705817D01*
X0691841Y0525529D02*
X0695778D01*
X0693809Y0523561D02*
Y0527498D01*
X0720616Y0515223D02*
X0724159D01*
X0722387Y0513451D02*
Y0516994D01*
Y0464505D02*
Y0468049D01*
X0720616Y0466277D02*
X0724159D01*
D144*
X0529647Y0447596D02*
Y048925D01*
X0573151D01*
Y0485982D02*
Y048925D01*
Y0485982D02*
X0593506D01*
Y0450864D02*
Y0485982D01*
X0573151Y0450864D02*
X0593506D01*
X0573151Y0447596D02*
Y0450864D01*
X0529647Y0447596D02*
X0573151D01*
X0665567Y0655984D02*
Y0661103D01*
Y0655984D02*
X0676197D01*
Y0661103D01*
X0665567D02*
X0676197D01*
X0670882Y0656575D02*
Y0660512D01*
X0668913Y0658543D02*
X067285D01*
X059435Y0465647D02*
Y047549D01*
X0599862Y0465647D02*
Y047549D01*
X059435Y0465647D02*
X0599862D01*
X059435Y047549D02*
X0599862D01*
X0617878Y0623176D02*
X062339D01*
X0617878Y0613333D02*
X062339D01*
Y0623176D01*
X0617878Y0613333D02*
Y0623176D01*
X0615341Y0652017D02*
X0620459D01*
Y0662647D01*
X0615341D02*
X0620459D01*
X0615341Y0652017D02*
Y0662647D01*
X0615932Y0657332D02*
X0619869D01*
X06179Y0655364D02*
Y0659301D01*
X0609141Y0652017D02*
X0614259D01*
Y0662647D01*
X0609141D02*
X0614259D01*
X0609141Y0652017D02*
Y0662647D01*
X0609731Y0657332D02*
X0613668D01*
X06117Y0655364D02*
Y0659301D01*
X0598232Y06104D02*
X0602169D01*
X06002Y0608431D02*
Y0612368D01*
X0583822Y0621483D02*
X0616578D01*
Y0599317D02*
Y0621483D01*
X0583822Y0599317D02*
X0616578D01*
X0583822D02*
Y0621483D01*
X0579582Y0613333D02*
Y0623176D01*
X057407Y0613333D02*
Y0623176D01*
X0579582D01*
X057407Y0613333D02*
X0579582D01*
X0567754D02*
X0573266D01*
X0567754Y0623176D02*
X0573266D01*
X0567754Y0613333D02*
Y0623176D01*
X0573266Y0613333D02*
Y0623176D01*
X0567754Y0607467D02*
X0573266D01*
X0567754Y0597624D02*
X0573266D01*
Y0607467D01*
X0567754Y0597624D02*
Y0607467D01*
X0624344Y0623121D02*
X0629856D01*
X0624344Y0613279D02*
X0629856D01*
Y0623121D01*
X0624344Y0613279D02*
Y0623121D01*
X0790081Y0447596D02*
Y048925D01*
X0746577Y0447596D02*
X0790081D01*
X0746577D02*
Y0450864D01*
X0726223D02*
X0746577D01*
X0726223D02*
Y0485982D01*
X0746577D01*
Y048925D01*
X0790081D01*
X0698148Y0506524D02*
X0703267D01*
Y0517154D01*
X0698148D02*
X0703267D01*
X0698148Y0506524D02*
Y0517154D01*
X0698739Y0511839D02*
X0702676D01*
X0700707Y050987D02*
Y0513807D01*
X0691453Y0506525D02*
Y0516367D01*
X0696965Y0506525D02*
Y0516367D01*
X0691453Y0506525D02*
X0696965D01*
X0691453Y0516367D02*
X0696965D01*
X0684754Y0506525D02*
Y0516367D01*
X0690266Y0506525D02*
Y0516367D01*
X0684754Y0506525D02*
X0690266D01*
X0684754Y0516367D02*
X0690266D01*
X0790081Y0496542D02*
Y0538195D01*
X0746577Y0496542D02*
X0790081D01*
X0746577D02*
Y0499809D01*
X0726223D02*
X0746577D01*
X0726223D02*
Y0534928D01*
X0746577D01*
Y0538195D01*
X0790081D01*
X0673554Y0485717D02*
X0683396D01*
X0673554Y0480205D02*
X0683396D01*
X0673554D02*
Y0485717D01*
X0683396Y0480205D02*
Y0485717D01*
X0645928Y0480149D02*
Y0485661D01*
X0655771Y0480149D02*
Y0485661D01*
X0645928D02*
X0655771D01*
X0645928Y0480149D02*
X0655771D01*
X0673554Y0533844D02*
X0683396D01*
X0673554Y0539356D02*
X0683396D01*
Y0533844D02*
Y0539356D01*
X0673554Y0533844D02*
Y0539356D01*
X0645879Y0539412D02*
X0655721D01*
X0645879Y05339D02*
X0655721D01*
X0645879D02*
Y0539412D01*
X0655721Y05339D02*
Y0539412D01*
X066062Y0532609D02*
X068062D01*
X066062Y0486861D02*
Y0532609D01*
Y0486861D02*
X068062D01*
Y0532609D01*
X0638704Y0532604D02*
X0658704D01*
X0638704Y0486856D02*
Y0532604D01*
Y0486856D02*
X0658704D01*
Y0532604D01*
X0629243Y0506048D02*
Y0515891D01*
X0634755Y0506048D02*
Y0515891D01*
X0629243Y0506048D02*
X0634755D01*
X0629243Y0515891D02*
X0634755D01*
X0622623Y0506048D02*
Y0515891D01*
X0628135Y0506048D02*
Y0515891D01*
X0622623Y0506048D02*
X0628135D01*
X0622623Y0515891D02*
X0628135D01*
X0618894Y0509422D02*
Y0513359D01*
X0616925Y0511391D02*
X0620862D01*
X0616335Y0506076D02*
Y0516706D01*
X0621453D01*
Y0506076D02*
Y0516706D01*
X0616335Y0506076D02*
X0621453D01*
X0529719Y0495805D02*
Y0537458D01*
X0573223D01*
Y0534191D02*
Y0537458D01*
Y0534191D02*
X0593577D01*
Y0499073D02*
Y0534191D01*
X0573223Y0499073D02*
X0593577D01*
X0573223Y0495805D02*
Y0499073D01*
X0529719Y0495805D02*
X0573223D01*
X059435Y0523698D02*
X0599862D01*
X059435Y0513856D02*
X0599862D01*
Y0523698D01*
X059435Y0513856D02*
Y0523698D01*
X0586387Y0569697D02*
Y0574815D01*
Y0569697D02*
X0597411D01*
Y0574815D01*
X0586387D02*
X0597411D01*
X0591899Y0570287D02*
Y0574224D01*
X058993Y0572256D02*
X0593867D01*
X0569447D02*
X0573384D01*
X0571416Y0570287D02*
Y0574224D01*
X0565904Y0574815D02*
X0576927D01*
Y0569697D02*
Y0574815D01*
X0565904Y0569697D02*
X0576927D01*
X0565904D02*
Y0574815D01*
X0549032Y0572256D02*
X0552969D01*
X0551001Y0570287D02*
Y0574224D01*
X0545489Y0574815D02*
X0556513D01*
Y0569697D02*
Y0574815D01*
X0545489Y0569697D02*
X0556513D01*
X0545489D02*
Y0574815D01*
X055061Y0597624D02*
Y0607467D01*
X0545098Y0597624D02*
Y0607467D01*
X055061D01*
X0545098Y0597624D02*
X055061D01*
X0545295Y0650669D02*
X0550413D01*
X0545295Y0640039D02*
Y0650669D01*
Y0640039D02*
X0550413D01*
Y0650669D01*
X0545886Y0645354D02*
X0549823D01*
X0547854Y0643386D02*
Y0647323D01*
X0539287Y0650669D02*
X0544405D01*
X0539287Y0640039D02*
Y0650669D01*
Y0640039D02*
X0544405D01*
Y0650669D01*
X0539877Y0645354D02*
X0543814D01*
X0541846Y0643386D02*
Y0647323D01*
X0567241Y0680638D02*
X0572359D01*
X0567241Y0670008D02*
Y0680638D01*
Y0670008D02*
X0572359D01*
Y0680638D01*
X0567832Y0675323D02*
X0571769D01*
X05698Y0673354D02*
Y0677291D01*
X0560835Y0680638D02*
X0565953D01*
X0560835Y0670008D02*
Y0680638D01*
Y0670008D02*
X0565953D01*
Y0680638D01*
X0561426Y0675323D02*
X0565363D01*
X0563394Y0673354D02*
Y0677291D01*
X0539287Y0671969D02*
X0544405D01*
Y0682598D01*
X0539287D02*
X0544405D01*
X0539287Y0671969D02*
Y0682598D01*
X0539877Y0677283D02*
X0543814D01*
X0541846Y0675315D02*
Y0679252D01*
X0547854Y0675315D02*
Y0679252D01*
X0545886Y0677283D02*
X0549823D01*
X0545295Y0671969D02*
Y0682598D01*
X0550413D01*
Y0671969D02*
Y0682598D01*
X0545295Y0671969D02*
X0550413D01*
X0589047Y0715053D02*
X0592984D01*
X0591016Y0713084D02*
Y0717021D01*
X0585701Y0712494D02*
X0596331D01*
X0585701D02*
Y0717612D01*
X0596331D01*
Y0712494D02*
Y0717612D01*
X0589047Y0721369D02*
X0592984D01*
X0591016Y07194D02*
Y0723337D01*
X0585701Y0718809D02*
X0596331D01*
X0585701D02*
Y0723928D01*
X0596331D01*
Y0718809D02*
Y0723928D01*
X0576449Y0707606D02*
X0617394D01*
X0576449Y0666661D02*
X0617394D01*
Y0707606D01*
X0576449Y0666661D02*
Y0707606D01*
X05758Y071641D02*
Y0720347D01*
X0573832Y0718379D02*
X0577769D01*
X0578359Y0713064D02*
Y0723694D01*
X0573241Y0713064D02*
X0578359D01*
X0573241D02*
Y0723694D01*
X0578359D01*
X057948Y0713056D02*
X0584598D01*
Y0723686D01*
X057948D02*
X0584598D01*
X057948Y0713056D02*
Y0723686D01*
X0580071Y0718371D02*
X0584008D01*
X0582039Y0716403D02*
Y072034D01*
X0538105Y0723924D02*
Y0729042D01*
Y0723924D02*
X0548735D01*
Y0729042D01*
X0538105D02*
X0548735D01*
X054342Y0724515D02*
Y0728452D01*
X0541451Y0726483D02*
X0545388D01*
X0538105Y0730241D02*
Y0735359D01*
Y0730241D02*
X0548735D01*
Y0735359D01*
X0538105D02*
X0548735D01*
X054342Y0730831D02*
Y0734768D01*
X0541451Y07328D02*
X0545388D01*
X0660474Y0750431D02*
Y0754368D01*
X0658506Y07524D02*
X0662443D01*
X0666557Y0736022D02*
Y0768778D01*
X0654391Y0736022D02*
X0666557D01*
X0654391D02*
Y0768778D01*
X0666557D01*
X0646844Y0724879D02*
X0652356D01*
X0646844Y0734721D02*
X0652356D01*
X0646844Y0724879D02*
Y0734721D01*
X0652356Y0724879D02*
Y0734721D01*
X0652156Y0736379D02*
Y0746221D01*
X0646644Y0736379D02*
Y0746221D01*
X0652156D01*
X0646644Y0736379D02*
X0652156D01*
X0635189Y0781954D02*
X0642078D01*
X0635189Y0767781D02*
Y0781954D01*
Y0767781D02*
X0642078D01*
Y0781954D01*
X0636665Y0774867D02*
X0640602D01*
X0638634Y0772899D02*
Y0776836D01*
X0625253Y0753128D02*
X0630765D01*
X0625253Y076297D02*
X0630765D01*
X0625253Y0753128D02*
Y076297D01*
X0630765Y0753128D02*
Y076297D01*
X0610677Y0756179D02*
Y0760116D01*
X0608708Y0758147D02*
X0612645D01*
X0613236Y0752832D02*
Y0763462D01*
X0608117Y0752832D02*
X0613236D01*
X0608117D02*
Y0763462D01*
X0613236D01*
X0606141Y0746768D02*
X0611259D01*
X0606141Y0736138D02*
Y0746768D01*
Y0736138D02*
X0611259D01*
Y0746768D01*
X0606732Y0741453D02*
X0610669D01*
X06087Y0739484D02*
Y0743421D01*
X06308Y0739484D02*
Y0743421D01*
X0628831Y0741453D02*
X0632768D01*
X0628241Y0736138D02*
Y0746768D01*
X0633359D01*
Y0736138D02*
Y0746768D01*
X0628241Y0736138D02*
X0633359D01*
X06306Y0708732D02*
Y0712669D01*
X0628631Y07107D02*
X0632569D01*
X0633159Y0705385D02*
Y0716015D01*
X0628041Y0705385D02*
X0633159D01*
X0628041D02*
Y0716015D01*
X0633159D01*
X0621841D02*
X0626959D01*
X0621841Y0705385D02*
Y0716015D01*
Y0705385D02*
X0626959D01*
Y0716015D01*
X0622432Y07107D02*
X0626369D01*
X06244Y0708732D02*
Y0712669D01*
Y0696976D02*
Y0700913D01*
X0622432Y0698945D02*
X0626369D01*
X0621841Y069363D02*
Y070426D01*
X0626959D01*
Y069363D02*
Y070426D01*
X0621841Y069363D02*
X0626959D01*
X0628041D02*
X0633159D01*
Y070426D01*
X0628041D02*
X0633159D01*
X0628041Y069363D02*
Y070426D01*
X0628631Y0698945D02*
X0632569D01*
X06306Y0696976D02*
Y0700913D01*
X0651149Y0707681D02*
Y0712799D01*
X0640126D02*
X0651149D01*
X0640126Y0707681D02*
Y0712799D01*
Y0707681D02*
X0651149D01*
X0645637Y0708271D02*
Y0712208D01*
X0643669Y071024D02*
X0647606D01*
X0651149Y0701041D02*
Y0706159D01*
X0640126D02*
X0651149D01*
X0640126Y0701041D02*
Y0706159D01*
Y0701041D02*
X0651149D01*
X0645637Y0701631D02*
Y0705569D01*
X0643669Y07036D02*
X0647606D01*
X0582622Y0630917D02*
Y0643083D01*
Y0630917D02*
X0625378D01*
Y0643083D01*
X0582622D02*
X0625378D01*
X0604Y0635032D02*
Y0638969D01*
X0602032Y0637D02*
X0605969D01*
X0567951Y0630732D02*
X0573069D01*
Y0641362D01*
X0567951D02*
X0573069D01*
X0567951Y0630732D02*
Y0641362D01*
X0568541Y0636047D02*
X0572478D01*
X057051Y0634079D02*
Y0638016D01*
X0576826Y0634079D02*
Y0638016D01*
X0574858Y0636047D02*
X0578794D01*
X0574267Y0630732D02*
Y0641362D01*
X0579385D01*
Y0630732D02*
Y0641362D01*
X0574267Y0630732D02*
X0579385D01*
X0492094Y0535051D02*
Y0538988D01*
X0490126Y0537019D02*
X0494063D01*
X0488649Y0529933D02*
Y0544106D01*
X0495539D01*
Y0529933D02*
Y0544106D01*
X0488649Y0529933D02*
X0495539D01*
X0492194Y0555452D02*
Y0559389D01*
X0490226Y055742D02*
X0494163D01*
X0488749Y0550334D02*
Y0564507D01*
X0495639D01*
Y0550334D02*
Y0564507D01*
X0488749Y0550334D02*
X0495639D01*
X0635189Y0750779D02*
X0642078D01*
Y0764953D01*
X0635189D02*
X0642078D01*
X0635189Y0750779D02*
Y0764953D01*
X0636665Y0757866D02*
X0640602D01*
X0638634Y0755898D02*
Y0759835D01*
X0659864Y0611762D02*
Y061688D01*
X0649234D02*
X0659864D01*
X0649234Y0611762D02*
Y061688D01*
Y0611762D02*
X0659864D01*
X0654549Y0612353D02*
Y061629D01*
X0652581Y0614321D02*
X0656518D01*
X0755323Y0737941D02*
Y0770855D01*
X073552D02*
X0755323D01*
X073552D02*
Y077613D01*
X0692449D02*
X073552D01*
X0692449Y0732666D02*
Y077613D01*
Y0732666D02*
X073552D01*
Y0737941D01*
X0755323D01*
X0772269Y0644626D02*
X0786049D01*
Y0711555D01*
X0772269D02*
X0786049D01*
X0772269Y0644626D02*
Y0711555D01*
X0756854Y0749772D02*
X0762366D01*
X0756854Y073993D02*
X0762366D01*
Y0749772D01*
X0756854Y073993D02*
Y0749772D01*
X0725143Y0510302D02*
Y0520144D01*
X0719631Y0510302D02*
Y0520144D01*
X0725143D01*
X0719631Y0510302D02*
X0725143D01*
X0719631Y0461356D02*
X0725143D01*
X0719631Y0471198D02*
X0725143D01*
X0719631Y0461356D02*
Y0471198D01*
X0725143Y0461356D02*
Y0471198D01*
D150*
X0689003Y0486846D02*
Y0504035D01*
X0704932Y0486846D02*
Y0504035D01*
X0689003D02*
X0704932D01*
X0689003Y0486846D02*
X0704932D01*
X0614438Y0486137D02*
X0630367D01*
X0614438Y0503326D02*
X0630367D01*
Y0486137D02*
Y0503326D01*
X0614438Y0486137D02*
Y0503326D01*
M02*
