G04*
G04 #@! TF.GenerationSoftware,Altium Limited,Altium Designer,21.3.2 (30)*
G04*
G04 Layer_Color=32896*
%FSTAX25Y25*%
%MOIN*%
G70*
G04*
G04 #@! TF.SameCoordinates,3AB95325-1BB8-4468-B31D-F8521517AB43*
G04*
G04*
G04 #@! TF.FilePolarity,Positive*
G04*
G01*
G75*
%ADD145C,0.00591*%
D145*
X0728684Y0652632D02*
X0729668Y0651648D01*
X0731636D01*
X073262Y0652632D01*
Y0656568D01*
X0731636Y0657552D01*
X0729668D01*
X0728684Y0656568D01*
X072278Y0657552D02*
X0726716D01*
X072278Y0653616D01*
Y0652632D01*
X0723764Y0651648D01*
X0725732D01*
X0726716Y0652632D01*
X0655831Y0575186D02*
X0654847Y0574202D01*
Y0572234D01*
X0655831Y057125D01*
X0659767D01*
X066075Y0572234D01*
Y0574202D01*
X0659767Y0575186D01*
X066075Y0577153D02*
Y0579121D01*
Y0578137D01*
X0654847D01*
X0655831Y0577153D01*
X066075Y0582073D02*
Y0584041D01*
Y0583057D01*
X0654847D01*
X0655831Y0582073D01*
X0806168Y0623532D02*
X0807152Y0622548D01*
X080912D01*
X0810104Y0623532D01*
Y0627468D01*
X080912Y0628452D01*
X0807152D01*
X0806168Y0627468D01*
X0804201Y0628452D02*
X0802233D01*
X0803217D01*
Y0622548D01*
X0804201Y0623532D01*
X0799281D02*
X0798297Y0622548D01*
X0796329D01*
X0795345Y0623532D01*
Y0627468D01*
X0796329Y0628452D01*
X0798297D01*
X0799281Y0627468D01*
Y0623532D01*
X0818952Y0494984D02*
Y0496952D01*
Y0495968D01*
X0814032D01*
X0813048Y0496952D01*
Y0497936D01*
X0814032Y049892D01*
X0817968Y0493016D02*
X0818952Y0492032D01*
Y0490064D01*
X0817968Y048908D01*
X0816984D01*
X0816Y0490064D01*
Y0491048D01*
Y0490064D01*
X0815016Y048908D01*
X0814032D01*
X0813048Y0490064D01*
Y0492032D01*
X0814032Y0493016D01*
X0505952Y0493984D02*
Y0495952D01*
Y0494968D01*
X0501032D01*
X0500048Y0495952D01*
Y0496936D01*
X0501032Y049792D01*
X0500048Y048808D02*
Y0492016D01*
X0503984Y048808D01*
X0504968D01*
X0505952Y0489064D01*
Y0491032D01*
X0504968Y0492016D01*
X0792787Y0725327D02*
X0793771Y0724343D01*
X0795739D01*
X0796722Y0725327D01*
Y0729263D01*
X0795739Y0730246D01*
X0793771D01*
X0792787Y0729263D01*
X0790819Y0724343D02*
X0786883D01*
Y0725327D01*
X0790819Y0729263D01*
Y0730246D01*
M02*
