G04*
G04 #@! TF.GenerationSoftware,Altium Limited,Altium Designer,21.3.2 (30)*
G04*
G04 Layer_Color=32768*
%FSTAX25Y25*%
%MOIN*%
G70*
G04*
G04 #@! TF.SameCoordinates,F2247190-6049-447B-BCC3-174C6299C890*
G04*
G04*
G04 #@! TF.FilePolarity,Positive*
G04*
G01*
G75*
%ADD14C,0.00394*%
D14*
X0747976Y0634324D02*
Y0674876D01*
X0715298Y0634324D02*
X0747976D01*
X0707424Y0642198D02*
Y0667002D01*
Y0642198D02*
X0715298Y0634324D01*
X0707424Y0667002D02*
X0715298Y0674876D01*
X0747976D01*
X0670791Y0564653D02*
Y0584535D01*
X0664688Y0590637D02*
X0670791Y0584535D01*
X0644807D02*
X0650909Y0590637D01*
X0664688D01*
X0644807Y0564653D02*
Y0584535D01*
Y0564653D02*
X0670791D01*
X0823Y0605224D02*
Y0645776D01*
X0790323Y0605224D02*
X0823D01*
X0782449Y0613098D02*
Y0637902D01*
Y0613098D02*
X0790323Y0605224D01*
X0782449Y0637902D02*
X0790323Y0645776D01*
X0823D01*
X0832339Y0474315D02*
Y0513685D01*
X0799661Y0474315D02*
Y0513685D01*
Y0474315D02*
X0832339D01*
X0827319Y0516047D02*
X0829878D01*
X0827319D02*
X0827811Y0513685D01*
X0829386D02*
X0829878Y0516047D01*
X0829386Y0513685D02*
X0832339D01*
X0802122Y0516047D02*
X0804681D01*
X0802122D02*
X0802614Y0513685D01*
X0804189D02*
X0804681Y0516047D01*
X0799661Y0513685D02*
X0802614D01*
X0804189D02*
X0827811D01*
X0491189Y0512685D02*
X0514811D01*
X0486661D02*
X0489614D01*
X0491189D02*
X0491681Y0515047D01*
X0489122D02*
X0489614Y0512685D01*
X0489122Y0515047D02*
X0491681D01*
X0516386Y0512685D02*
X0519339D01*
X0516386D02*
X0516878Y0515047D01*
X0514319D02*
X0514811Y0512685D01*
X0514319Y0515047D02*
X0516878D01*
X0486661Y0473315D02*
X0519339D01*
X0486661D02*
Y0512685D01*
X0519339Y0473315D02*
Y0512685D01*
X0804795Y0714303D02*
Y0740287D01*
X0784914Y0714303D02*
X0804795D01*
X0778811Y0720405D02*
Y0734185D01*
Y0720405D02*
X0784914Y0714303D01*
X0778811Y0734185D02*
X0784914Y0740287D01*
X0804795D01*
M02*
