G04*
G04 #@! TF.GenerationSoftware,Altium Limited,Altium Designer,21.3.2 (30)*
G04*
G04 Layer_Color=2752767*
%FSTAX25Y25*%
%MOIN*%
G70*
G04*
G04 #@! TF.SameCoordinates,F2247190-6049-447B-BCC3-174C6299C890*
G04*
G04*
G04 #@! TF.FilePolarity,Positive*
G04*
G01*
G75*
%ADD150C,0.00200*%
%ADD151C,0.00267*%
D150*
X08012Y065531D02*
Y065691D01*
X08028D01*
Y065531D01*
X08012D01*
Y066909D02*
Y067069D01*
X08028D01*
Y066909D01*
X08012D01*
X0816Y0503043D02*
X08152Y0504642D01*
X08168D01*
X0816Y0503043D01*
Y0483357D02*
X08152Y0484958D01*
X08168D01*
X0816Y0483357D01*
X0503Y0482358D02*
X05022Y0483957D01*
X05038D01*
X0503Y0482358D01*
Y0502042D02*
X05022Y0503643D01*
X05038D01*
X0503Y0502042D01*
X0802Y06852D02*
X08024Y06856D01*
X08028D01*
X08024Y0686D01*
X08028Y06864D01*
X08024D01*
X0802Y06868D01*
X08016Y06864D01*
X08012D01*
X08016Y0686D01*
X08012Y06856D01*
X08016D01*
X0802Y06852D01*
Y0702916D02*
X08024Y0703316D01*
X08028D01*
X08024Y0703717D01*
X08028Y0704116D01*
X08024D01*
X0802Y0704517D01*
X08016Y0704116D01*
X08012D01*
X08016Y0703717D01*
X08012Y0703316D01*
X08016D01*
X0802Y0702916D01*
X07773Y065731D02*
Y065891D01*
X07789D01*
Y065731D01*
X07773D01*
X0779418Y0697271D02*
Y0698871D01*
X0781018D01*
Y0697271D01*
X0779418D01*
X08092Y04342D02*
X08096Y0435D01*
X08092Y04358D01*
X081Y04354D01*
X08108Y04358D01*
X08104Y0435D01*
X08108Y04342D01*
X081Y04346D01*
X08092Y04342D01*
X05002D02*
X05006Y0435D01*
X05002Y04358D01*
X0501Y04354D01*
X05018Y04358D01*
X05014Y0435D01*
X05018Y04342D01*
X0501Y04346D01*
X05002Y04342D01*
X08092Y07638D02*
X08096Y07646D01*
X08092Y07654D01*
X081Y0765D01*
X08108Y07654D01*
X08104Y07646D01*
X08108Y07638D01*
X081Y07642D01*
X08092Y07638D01*
X05002D02*
X05006Y07646D01*
X05002Y07654D01*
X0501Y0765D01*
X05018Y07654D01*
X05014Y07646D01*
X05018Y07638D01*
X0501Y07642D01*
X05002Y07638D01*
X0699854Y0537591D02*
Y0537191D01*
X0700654D01*
Y0537591D01*
X0701054D01*
Y0538391D01*
X0700654D01*
Y0538791D01*
X0699854D01*
Y0538391D01*
X0699454D01*
Y0537591D01*
X0699854D01*
X05342Y0486018D02*
X05346D01*
X0535Y0486418D01*
X05354Y0486018D01*
X05358D01*
Y0486418D01*
X05354Y0486818D01*
X05358Y0487218D01*
Y0487618D01*
X05354D01*
X0535Y0487218D01*
X05346Y0487618D01*
X05342D01*
Y0487218D01*
X05346Y0486818D01*
X05342Y0486418D01*
Y0486018D01*
Y04542D02*
X05346D01*
X0535Y04546D01*
X05354Y04542D01*
X05358D01*
Y04546D01*
X05354Y0455D01*
X05358Y04554D01*
Y04558D01*
X05354D01*
X0535Y04554D01*
X05346Y04558D01*
X05342D01*
Y04554D01*
X05346Y0455D01*
X05342Y04546D01*
Y04542D01*
Y04752D02*
X05346D01*
X0535Y04756D01*
X05354Y04752D01*
X05358D01*
Y04756D01*
X05354Y0476D01*
X05358Y04764D01*
Y04768D01*
X05354D01*
X0535Y04764D01*
X05346Y04768D01*
X05342D01*
Y04764D01*
X05346Y0476D01*
X05342Y04756D01*
Y04752D01*
X05442Y04642D02*
X05446D01*
X0545Y04646D01*
X05454Y04642D01*
X05458D01*
Y04646D01*
X05454Y0465D01*
X05458Y04654D01*
Y04658D01*
X05454D01*
X0545Y04654D01*
X05446Y04658D01*
X05442D01*
Y04654D01*
X05446Y0465D01*
X05442Y04646D01*
Y04642D01*
X06354Y0468D02*
X06358D01*
X06362Y04684D01*
X06366Y0468D01*
X0637D01*
Y04684D01*
X06366Y04688D01*
X0637Y04692D01*
Y04696D01*
X06366D01*
X06362Y04692D01*
X06358Y04696D01*
X06354D01*
Y04692D01*
X06358Y04688D01*
X06354Y04684D01*
Y0468D01*
X05442Y0486018D02*
X05446D01*
X0545Y0486418D01*
X05454Y0486018D01*
X05458D01*
Y0486418D01*
X05454Y0486818D01*
X05458Y0487218D01*
Y0487618D01*
X05454D01*
X0545Y0487218D01*
X05446Y0487618D01*
X05442D01*
Y0487218D01*
X05446Y0486818D01*
X05442Y0486418D01*
Y0486018D01*
Y0454111D02*
X05446D01*
X0545Y0454511D01*
X05454Y0454111D01*
X05458D01*
Y0454511D01*
X05454Y0454911D01*
X05458Y0455311D01*
Y0455711D01*
X05454D01*
X0545Y0455311D01*
X05446Y0455711D01*
X05442D01*
Y0455311D01*
X05446Y0454911D01*
X05442Y0454511D01*
Y0454111D01*
X06188Y04629D02*
X06192D01*
X06196Y04633D01*
X062Y04629D01*
X06204D01*
Y04633D01*
X062Y04637D01*
X06204Y04641D01*
Y04645D01*
X062D01*
X06196Y04641D01*
X06192Y04645D01*
X06188D01*
Y04641D01*
X06192Y04637D01*
X06188Y04633D01*
Y04629D01*
X05442Y04752D02*
X05446D01*
X0545Y04756D01*
X05454Y04752D01*
X05458D01*
Y04756D01*
X05454Y0476D01*
X05458Y04764D01*
Y04768D01*
X05454D01*
X0545Y04764D01*
X05446Y04768D01*
X05442D01*
Y04764D01*
X05446Y0476D01*
X05442Y04756D01*
Y04752D01*
X06067Y04577D02*
X06071D01*
X06075Y04581D01*
X06079Y04577D01*
X06083D01*
Y04581D01*
X06079Y04585D01*
X06083Y04589D01*
Y04593D01*
X06079D01*
X06075Y04589D01*
X06071Y04593D01*
X06067D01*
Y04589D01*
X06071Y04585D01*
X06067Y04581D01*
Y04577D01*
X05342Y04642D02*
X05346D01*
X0535Y04646D01*
X05354Y04642D01*
X05358D01*
Y04646D01*
X05354Y0465D01*
X05358Y04654D01*
Y04658D01*
X05354D01*
X0535Y04654D01*
X05346Y04658D01*
X05342D01*
Y04654D01*
X05346Y0465D01*
X05342Y04646D01*
Y04642D01*
X0569091Y0483202D02*
X0569491D01*
X0569891Y0483602D01*
X0570291Y0483202D01*
X0570691D01*
Y0483602D01*
X0570291Y0484002D01*
X0570691Y0484402D01*
Y0484802D01*
X0570291D01*
X0569891Y0484402D01*
X0569491Y0484802D01*
X0569091D01*
Y0484402D01*
X0569491Y0484002D01*
X0569091Y0483602D01*
Y0483202D01*
X06255Y0554808D02*
X06259D01*
X06263Y0555208D01*
X06267Y0554808D01*
X06271D01*
Y0555208D01*
X06267Y0555608D01*
X06271Y0556008D01*
Y0556408D01*
X06267D01*
X06263Y0556008D01*
X06259Y0556408D01*
X06255D01*
Y0556008D01*
X06259Y0555608D01*
X06255Y0555208D01*
Y0554808D01*
X07438Y06457D02*
X07442D01*
X07446Y06461D01*
X0745Y06457D01*
X07454D01*
Y06461D01*
X0745Y06465D01*
X07454Y06469D01*
Y06473D01*
X0745D01*
X07446Y06469D01*
X07442Y06473D01*
X07438D01*
Y06469D01*
X07442Y06465D01*
X07438Y06461D01*
Y06457D01*
X0739237Y0581079D02*
X0739637D01*
X0740037Y0581479D01*
X0740437Y0581079D01*
X0740837D01*
Y0581479D01*
X0740437Y0581879D01*
X0740837Y0582279D01*
Y0582679D01*
X0740437D01*
X0740037Y0582279D01*
X0739637Y0582679D01*
X0739237D01*
Y0582279D01*
X0739637Y0581879D01*
X0739237Y0581479D01*
Y0581079D01*
X0669699Y05554D02*
X0670099D01*
X0670499Y05558D01*
X0670899Y05554D01*
X0671299D01*
Y05558D01*
X0670899Y05562D01*
X0671299Y05566D01*
Y0557D01*
X0670899D01*
X0670499Y05566D01*
X0670099Y0557D01*
X0669699D01*
Y05566D01*
X0670099Y05562D01*
X0669699Y05558D01*
Y05554D01*
X06657Y0681513D02*
X06661D01*
X06665Y0681913D01*
X06669Y0681513D01*
X06673D01*
Y0681913D01*
X06669Y0682313D01*
X06673Y0682713D01*
Y0683113D01*
X06669D01*
X06665Y0682713D01*
X06661Y0683113D01*
X06657D01*
Y0682713D01*
X06661Y0682313D01*
X06657Y0681913D01*
Y0681513D01*
X06604Y06294D02*
X06608D01*
X06612Y06298D01*
X06616Y06294D01*
X0662D01*
Y06298D01*
X06616Y06302D01*
X0662Y06306D01*
Y0631D01*
X06616D01*
X06612Y06306D01*
X06608Y0631D01*
X06604D01*
Y06306D01*
X06608Y06302D01*
X06604Y06298D01*
Y06294D01*
X066708Y06508D02*
X066748D01*
X066788Y06512D01*
X066828Y06508D01*
X066868D01*
Y06512D01*
X066828Y06516D01*
X066868Y0652D01*
Y06524D01*
X066828D01*
X066788Y0652D01*
X066748Y06524D01*
X066708D01*
Y0652D01*
X066748Y06516D01*
X066708Y06512D01*
Y06508D01*
X06547Y0656863D02*
X06551D01*
X06555Y0657263D01*
X06559Y0656863D01*
X06563D01*
Y0657263D01*
X06559Y0657663D01*
X06563Y0658063D01*
Y0658463D01*
X06559D01*
X06555Y0658063D01*
X06551Y0658463D01*
X06547D01*
Y0658063D01*
X06551Y0657663D01*
X06547Y0657263D01*
Y0656863D01*
X0623Y05444D02*
Y0544D01*
X06238D01*
Y05444D01*
X06242D01*
Y05452D01*
X06238D01*
Y05456D01*
X0623D01*
Y05452D01*
X06226D01*
Y05444D01*
X0623D01*
X06137Y05662D02*
X06141D01*
X06145Y05666D01*
X06149Y05662D01*
X06153D01*
Y05666D01*
X06149Y0567D01*
X06153Y05674D01*
Y05678D01*
X06149D01*
X06145Y05674D01*
X06141Y05678D01*
X06137D01*
Y05674D01*
X06141Y0567D01*
X06137Y05666D01*
Y05662D01*
X0751899Y0611704D02*
X0752299D01*
X0752699Y0612104D01*
X0753099Y0611704D01*
X0753499D01*
Y0612104D01*
X0753099Y0612504D01*
X0753499Y0612904D01*
Y0613304D01*
X0753099D01*
X0752699Y0612904D01*
X0752299Y0613304D01*
X0751899D01*
Y0612904D01*
X0752299Y0612504D01*
X0751899Y0612104D01*
Y0611704D01*
X0777629Y05546D02*
Y05542D01*
X0778429D01*
Y05546D01*
X0778829D01*
Y05554D01*
X0778429D01*
Y05558D01*
X0777629D01*
Y05554D01*
X0777229D01*
Y05546D01*
X0777629D01*
X06924Y04532D02*
Y04528D01*
X06932D01*
Y04532D01*
X06936D01*
Y0454D01*
X06932D01*
Y04544D01*
X06924D01*
Y0454D01*
X0692D01*
Y04532D01*
X06924D01*
X07892Y04242D02*
X07896D01*
X079Y04246D01*
X07904Y04242D01*
X07908D01*
Y04246D01*
X07904Y0425D01*
X07908Y04254D01*
Y04258D01*
X07904D01*
X079Y04254D01*
X07896Y04258D01*
X07892D01*
Y04254D01*
X07896Y0425D01*
X07892Y04246D01*
Y04242D01*
X07692D02*
X07696D01*
X077Y04246D01*
X07704Y04242D01*
X07708D01*
Y04246D01*
X07704Y0425D01*
X07708Y04254D01*
Y04258D01*
X07704D01*
X077Y04254D01*
X07696Y04258D01*
X07692D01*
Y04254D01*
X07696Y0425D01*
X07692Y04246D01*
Y04242D01*
X0749319D02*
X0749719D01*
X0750119Y04246D01*
X0750519Y04242D01*
X0750919D01*
Y04246D01*
X0750519Y0425D01*
X0750919Y04254D01*
Y04258D01*
X0750519D01*
X0750119Y04254D01*
X0749719Y04258D01*
X0749319D01*
Y04254D01*
X0749719Y0425D01*
X0749319Y04246D01*
Y04242D01*
X07292D02*
X07296D01*
X073Y04246D01*
X07304Y04242D01*
X07308D01*
Y04246D01*
X07304Y0425D01*
X07308Y04254D01*
Y04258D01*
X07304D01*
X073Y04254D01*
X07296Y04258D01*
X07292D01*
Y04254D01*
X07296Y0425D01*
X07292Y04246D01*
Y04242D01*
X07092D02*
X07096D01*
X071Y04246D01*
X07104Y04242D01*
X07108D01*
Y04246D01*
X07104Y0425D01*
X07108Y04254D01*
Y04258D01*
X07104D01*
X071Y04254D01*
X07096Y04258D01*
X07092D01*
Y04254D01*
X07096Y0425D01*
X07092Y04246D01*
Y04242D01*
X06892D02*
X06896D01*
X069Y04246D01*
X06904Y04242D01*
X06908D01*
Y04246D01*
X06904Y0425D01*
X06908Y04254D01*
Y04258D01*
X06904D01*
X069Y04254D01*
X06896Y04258D01*
X06892D01*
Y04254D01*
X06896Y0425D01*
X06892Y04246D01*
Y04242D01*
X06692D02*
X06696D01*
X067Y04246D01*
X06704Y04242D01*
X06708D01*
Y04246D01*
X06704Y0425D01*
X06708Y04254D01*
Y04258D01*
X06704D01*
X067Y04254D01*
X06696Y04258D01*
X06692D01*
Y04254D01*
X06696Y0425D01*
X06692Y04246D01*
Y04242D01*
X06492D02*
X06496D01*
X065Y04246D01*
X06504Y04242D01*
X06508D01*
Y04246D01*
X06504Y0425D01*
X06508Y04254D01*
Y04258D01*
X06504D01*
X065Y04254D01*
X06496Y04258D01*
X06492D01*
Y04254D01*
X06496Y0425D01*
X06492Y04246D01*
Y04242D01*
X06292D02*
X06296D01*
X063Y04246D01*
X06304Y04242D01*
X06308D01*
Y04246D01*
X06304Y0425D01*
X06308Y04254D01*
Y04258D01*
X06304D01*
X063Y04254D01*
X06296Y04258D01*
X06292D01*
Y04254D01*
X06296Y0425D01*
X06292Y04246D01*
Y04242D01*
X06092D02*
X06096D01*
X061Y04246D01*
X06104Y04242D01*
X06108D01*
Y04246D01*
X06104Y0425D01*
X06108Y04254D01*
Y04258D01*
X06104D01*
X061Y04254D01*
X06096Y04258D01*
X06092D01*
Y04254D01*
X06096Y0425D01*
X06092Y04246D01*
Y04242D01*
X07792Y0433168D02*
X07796D01*
X078Y0433568D01*
X07804Y0433168D01*
X07808D01*
Y0433568D01*
X07804Y0433968D01*
X07808Y0434368D01*
Y0434768D01*
X07804D01*
X078Y0434368D01*
X07796Y0434768D01*
X07792D01*
Y0434368D01*
X07796Y0433968D01*
X07792Y0433568D01*
Y0433168D01*
X07592Y0433427D02*
X07596D01*
X076Y0433827D01*
X07604Y0433427D01*
X07608D01*
Y0433827D01*
X07604Y0434227D01*
X07608Y0434627D01*
Y0435027D01*
X07604D01*
X076Y0434627D01*
X07596Y0435027D01*
X07592D01*
Y0434627D01*
X07596Y0434227D01*
X07592Y0433827D01*
Y0433427D01*
X07392D02*
X07396D01*
X074Y0433827D01*
X07404Y0433427D01*
X07408D01*
Y0433827D01*
X07404Y0434227D01*
X07408Y0434627D01*
Y0435027D01*
X07404D01*
X074Y0434627D01*
X07396Y0435027D01*
X07392D01*
Y0434627D01*
X07396Y0434227D01*
X07392Y0433827D01*
Y0433427D01*
X07192D02*
X07196D01*
X072Y0433827D01*
X07204Y0433427D01*
X07208D01*
Y0433827D01*
X07204Y0434227D01*
X07208Y0434627D01*
Y0435027D01*
X07204D01*
X072Y0434627D01*
X07196Y0435027D01*
X07192D01*
Y0434627D01*
X07196Y0434227D01*
X07192Y0433827D01*
Y0433427D01*
X06992D02*
X06996D01*
X07Y0433827D01*
X07004Y0433427D01*
X07008D01*
Y0433827D01*
X07004Y0434227D01*
X07008Y0434627D01*
Y0435027D01*
X07004D01*
X07Y0434627D01*
X06996Y0435027D01*
X06992D01*
Y0434627D01*
X06996Y0434227D01*
X06992Y0433827D01*
Y0433427D01*
X067968D02*
X068008D01*
X068048Y0433827D01*
X068088Y0433427D01*
X068128D01*
Y0433827D01*
X068088Y0434227D01*
X068128Y0434627D01*
Y0435027D01*
X068088D01*
X068048Y0434627D01*
X068008Y0435027D01*
X067968D01*
Y0434627D01*
X068008Y0434227D01*
X067968Y0433827D01*
Y0433427D01*
X06592D02*
X06596D01*
X066Y0433827D01*
X06604Y0433427D01*
X06608D01*
Y0433827D01*
X06604Y0434227D01*
X06608Y0434627D01*
Y0435027D01*
X06604D01*
X066Y0434627D01*
X06596Y0435027D01*
X06592D01*
Y0434627D01*
X06596Y0434227D01*
X06592Y0433827D01*
Y0433427D01*
X06392D02*
X06396D01*
X064Y0433827D01*
X06404Y0433427D01*
X06408D01*
Y0433827D01*
X06404Y0434227D01*
X06408Y0434627D01*
Y0435027D01*
X06404D01*
X064Y0434627D01*
X06396Y0435027D01*
X06392D01*
Y0434627D01*
X06396Y0434227D01*
X06392Y0433827D01*
Y0433427D01*
X06192D02*
X06196D01*
X062Y0433827D01*
X06204Y0433427D01*
X06208D01*
Y0433827D01*
X06204Y0434227D01*
X06208Y0434627D01*
Y0435027D01*
X06204D01*
X062Y0434627D01*
X06196Y0435027D01*
X06192D01*
Y0434627D01*
X06196Y0434227D01*
X06192Y0433827D01*
Y0433427D01*
Y04492D02*
X06196D01*
X062Y04496D01*
X06204Y04492D01*
X06208D01*
Y04496D01*
X06204Y045D01*
X06208Y04504D01*
Y04508D01*
X06204D01*
X062Y04504D01*
X06196Y04508D01*
X06192D01*
Y04504D01*
X06196Y045D01*
X06192Y04496D01*
Y04492D01*
X05992Y0433427D02*
X05996D01*
X06Y0433827D01*
X06004Y0433427D01*
X06008D01*
Y0433827D01*
X06004Y0434227D01*
X06008Y0434627D01*
Y0435027D01*
X06004D01*
X06Y0434627D01*
X05996Y0435027D01*
X05992D01*
Y0434627D01*
X05996Y0434227D01*
X05992Y0433827D01*
Y0433427D01*
X0493132Y0511506D02*
X0493532D01*
X0493932Y0511906D01*
X0494332Y0511506D01*
X0494732D01*
Y0511906D01*
X0494332Y0512306D01*
X0494732Y0512706D01*
Y0513106D01*
X0494332D01*
X0493932Y0512706D01*
X0493532Y0513106D01*
X0493132D01*
Y0512706D01*
X0493532Y0512306D01*
X0493132Y0511906D01*
Y0511506D01*
X05152Y05462D02*
X05156D01*
X0516Y05466D01*
X05164Y05462D01*
X05168D01*
Y05466D01*
X05164Y0547D01*
X05168Y05474D01*
Y05478D01*
X05164D01*
X0516Y05474D01*
X05156Y05478D01*
X05152D01*
Y05474D01*
X05156Y0547D01*
X05152Y05466D01*
Y05462D01*
X05192Y0563117D02*
X05196D01*
X052Y0563517D01*
X05204Y0563117D01*
X05208D01*
Y0563517D01*
X05204Y0563916D01*
X05208Y0564317D01*
Y0564716D01*
X05204D01*
X052Y0564317D01*
X05196Y0564716D01*
X05192D01*
Y0564317D01*
X05196Y0563916D01*
X05192Y0563517D01*
Y0563117D01*
X0529943Y0430017D02*
X0530342D01*
X0530743Y0430417D01*
X0531143Y0430017D01*
X0531542D01*
Y0430417D01*
X0531143Y0430817D01*
X0531542Y0431217D01*
Y0431617D01*
X0531143D01*
X0530743Y0431217D01*
X0530342Y0431617D01*
X0529943D01*
Y0431217D01*
X0530342Y0430817D01*
X0529943Y0430417D01*
Y0430017D01*
X05079Y05413D02*
X05083D01*
X05087Y05417D01*
X05091Y05413D01*
X05095D01*
Y05417D01*
X05091Y05421D01*
X05095Y05425D01*
Y05429D01*
X05091D01*
X05087Y05425D01*
X05083Y05429D01*
X05079D01*
Y05425D01*
X05083Y05421D01*
X05079Y05417D01*
Y05413D01*
X05142Y04752D02*
X05146D01*
X0515Y04756D01*
X05154Y04752D01*
X05158D01*
Y04756D01*
X05154Y0476D01*
X05158Y04764D01*
Y04768D01*
X05154D01*
X0515Y04764D01*
X05146Y04768D01*
X05142D01*
Y04764D01*
X05146Y0476D01*
X05142Y04756D01*
Y04752D01*
X05042D02*
X05046D01*
X0505Y04756D01*
X05054Y04752D01*
X05058D01*
Y04756D01*
X05054Y0476D01*
X05058Y04764D01*
Y04768D01*
X05054D01*
X0505Y04764D01*
X05046Y04768D01*
X05042D01*
Y04764D01*
X05046Y0476D01*
X05042Y04756D01*
Y04752D01*
X04868Y05258D02*
X04872D01*
X04876Y05262D01*
X0488Y05258D01*
X04884D01*
Y05262D01*
X0488Y05266D01*
X04884Y0527D01*
Y05274D01*
X0488D01*
X04876Y0527D01*
X04872Y05274D01*
X04868D01*
Y0527D01*
X04872Y05266D01*
X04868Y05262D01*
Y05258D01*
X055018Y0441367D02*
X055058D01*
X055098Y0441768D01*
X055138Y0441367D01*
X055178D01*
Y0441768D01*
X055138Y0442168D01*
X055178Y0442567D01*
Y0442968D01*
X055138D01*
X055098Y0442567D01*
X055058Y0442968D01*
X055018D01*
Y0442567D01*
X055058Y0442168D01*
X055018Y0441768D01*
Y0441367D01*
X05342Y0492194D02*
X05346D01*
X0535Y0492594D01*
X05354Y0492194D01*
X05358D01*
Y0492594D01*
X05354Y0492994D01*
X05358Y0493394D01*
Y0493794D01*
X05354D01*
X0535Y0493394D01*
X05346Y0493794D01*
X05342D01*
Y0493394D01*
X05346Y0492994D01*
X05342Y0492594D01*
Y0492194D01*
X05242Y0486018D02*
X05246D01*
X0525Y0486418D01*
X05254Y0486018D01*
X05258D01*
Y0486418D01*
X05254Y0486818D01*
X05258Y0487218D01*
Y0487618D01*
X05254D01*
X0525Y0487218D01*
X05246Y0487618D01*
X05242D01*
Y0487218D01*
X05246Y0486818D01*
X05242Y0486418D01*
Y0486018D01*
X0547Y0492D02*
Y04916D01*
X05478D01*
Y0492D01*
X05482D01*
Y04928D01*
X05478D01*
Y04932D01*
X0547D01*
Y04928D01*
X05466D01*
Y0492D01*
X0547D01*
X056444Y0491963D02*
X056484D01*
X056524Y0492363D01*
X056564Y0491963D01*
X056604D01*
Y0492363D01*
X056564Y0492763D01*
X056604Y0493163D01*
Y0493563D01*
X056564D01*
X056524Y0493163D01*
X056484Y0493563D01*
X056444D01*
Y0493163D01*
X056484Y0492763D01*
X056444Y0492363D01*
Y0491963D01*
X05042Y05092D02*
X05046D01*
X0505Y05096D01*
X05054Y05092D01*
X05058D01*
Y05096D01*
X05054Y051D01*
X05058Y05104D01*
Y05108D01*
X05054D01*
X0505Y05104D01*
X05046Y05108D01*
X05042D01*
Y05104D01*
X05046Y051D01*
X05042Y05096D01*
Y05092D01*
X05022Y0492194D02*
X05026D01*
X0503Y0492594D01*
X05034Y0492194D01*
X05038D01*
Y0492594D01*
X05034Y0492994D01*
X05038Y0493394D01*
Y0493794D01*
X05034D01*
X0503Y0493394D01*
X05026Y0493794D01*
X05022D01*
Y0493394D01*
X05026Y0492994D01*
X05022Y0492594D01*
Y0492194D01*
X05142D02*
X05146D01*
X0515Y0492594D01*
X05154Y0492194D01*
X05158D01*
Y0492594D01*
X05154Y0492994D01*
X05158Y0493394D01*
Y0493794D01*
X05154D01*
X0515Y0493394D01*
X05146Y0493794D01*
X05142D01*
Y0493394D01*
X05146Y0492994D01*
X05142Y0492594D01*
Y0492194D01*
X05242D02*
X05246D01*
X0525Y0492594D01*
X05254Y0492194D01*
X05258D01*
Y0492594D01*
X05254Y0492994D01*
X05258Y0493394D01*
Y0493794D01*
X05254D01*
X0525Y0493394D01*
X05246Y0493794D01*
X05242D01*
Y0493394D01*
X05246Y0492994D01*
X05242Y0492594D01*
Y0492194D01*
X08152Y0492D02*
X08156D01*
X0816Y04924D01*
X08164Y0492D01*
X08168D01*
Y04924D01*
X08164Y04928D01*
X08168Y04932D01*
Y04936D01*
X08164D01*
X0816Y04932D01*
X08156Y04936D01*
X08152D01*
Y04932D01*
X08156Y04928D01*
X08152Y04924D01*
Y0492D01*
X08042D02*
X08046D01*
X0805Y04924D01*
X08054Y0492D01*
X08058D01*
Y04924D01*
X08054Y04928D01*
X08058Y04932D01*
Y04936D01*
X08054D01*
X0805Y04932D01*
X08046Y04936D01*
X08042D01*
Y04932D01*
X08046Y04928D01*
X08042Y04924D01*
Y0492D01*
X07942D02*
X07946D01*
X0795Y04924D01*
X07954Y0492D01*
X07958D01*
Y04924D01*
X07954Y04928D01*
X07958Y04932D01*
Y04936D01*
X07954D01*
X0795Y04932D01*
X07946Y04936D01*
X07942D01*
Y04932D01*
X07946Y04928D01*
X07942Y04924D01*
Y0492D01*
X07842D02*
X07846D01*
X0785Y04924D01*
X07854Y0492D01*
X07858D01*
Y04924D01*
X07854Y04928D01*
X07858Y04932D01*
Y04936D01*
X07854D01*
X0785Y04932D01*
X07846Y04936D01*
X07842D01*
Y04932D01*
X07846Y04928D01*
X07842Y04924D01*
Y0492D01*
X07742D02*
X07746D01*
X0775Y04924D01*
X07754Y0492D01*
X07758D01*
Y04924D01*
X07754Y04928D01*
X07758Y04932D01*
Y04936D01*
X07754D01*
X0775Y04932D01*
X07746Y04936D01*
X07742D01*
Y04932D01*
X07746Y04928D01*
X07742Y04924D01*
Y0492D01*
X07642D02*
X07646D01*
X0765Y04924D01*
X07654Y0492D01*
X07658D01*
Y04924D01*
X07654Y04928D01*
X07658Y04932D01*
Y04936D01*
X07654D01*
X0765Y04932D01*
X07646Y04936D01*
X07642D01*
Y04932D01*
X07646Y04928D01*
X07642Y04924D01*
Y0492D01*
X07452Y04942D02*
X07456D01*
X0746Y04946D01*
X07464Y04942D01*
X07468D01*
Y04946D01*
X07464Y0495D01*
X07468Y04954D01*
Y04958D01*
X07464D01*
X0746Y04954D01*
X07456Y04958D01*
X07452D01*
Y04954D01*
X07456Y0495D01*
X07452Y04946D01*
Y04942D01*
X07346Y04946D02*
Y04942D01*
X07354D01*
Y04946D01*
X07358D01*
Y04954D01*
X07354D01*
Y04958D01*
X07346D01*
Y04954D01*
X07342D01*
Y04946D01*
X07346D01*
X07942Y0532764D02*
X07946D01*
X0795Y0533164D01*
X07954Y0532764D01*
X07958D01*
Y0533164D01*
X07954Y0533564D01*
X07958Y0533964D01*
Y0534364D01*
X07954D01*
X0795Y0533964D01*
X07946Y0534364D01*
X07942D01*
Y0533964D01*
X07946Y0533564D01*
X07942Y0533164D01*
Y0532764D01*
X08042Y05092D02*
X08046D01*
X0805Y05096D01*
X08054Y05092D01*
X08058D01*
Y05096D01*
X08054Y051D01*
X08058Y05104D01*
Y05108D01*
X08054D01*
X0805Y05104D01*
X08046Y05108D01*
X08042D01*
Y05104D01*
X08046Y051D01*
X08042Y05096D01*
Y05092D01*
Y0521529D02*
X08046D01*
X0805Y0521929D01*
X08054Y0521529D01*
X08058D01*
Y0521929D01*
X08054Y0522329D01*
X08058Y0522729D01*
Y0523129D01*
X08054D01*
X0805Y0522729D01*
X08046Y0523129D01*
X08042D01*
Y0522729D01*
X08046Y0522329D01*
X08042Y0521929D01*
Y0521529D01*
X07942D02*
X07946D01*
X0795Y0521929D01*
X07954Y0521529D01*
X07958D01*
Y0521929D01*
X07954Y0522329D01*
X07958Y0522729D01*
Y0523129D01*
X07954D01*
X0795Y0522729D01*
X07946Y0523129D01*
X07942D01*
Y0522729D01*
X07946Y0522329D01*
X07942Y0521929D01*
Y0521529D01*
Y05092D02*
X07946D01*
X0795Y05096D01*
X07954Y05092D01*
X07958D01*
Y05096D01*
X07954Y051D01*
X07958Y05104D01*
Y05108D01*
X07954D01*
X0795Y05104D01*
X07946Y05108D01*
X07942D01*
Y05104D01*
X07946Y051D01*
X07942Y05096D01*
Y05092D01*
X07842Y0532764D02*
X07846D01*
X0785Y0533164D01*
X07854Y0532764D01*
X07858D01*
Y0533164D01*
X07854Y0533564D01*
X07858Y0533964D01*
Y0534364D01*
X07854D01*
X0785Y0533964D01*
X07846Y0534364D01*
X07842D01*
Y0533964D01*
X07846Y0533564D01*
X07842Y0533164D01*
Y0532764D01*
Y0521529D02*
X07846D01*
X0785Y0521929D01*
X07854Y0521529D01*
X07858D01*
Y0521929D01*
X07854Y0522329D01*
X07858Y0522729D01*
Y0523129D01*
X07854D01*
X0785Y0522729D01*
X07846Y0523129D01*
X07842D01*
Y0522729D01*
X07846Y0522329D01*
X07842Y0521929D01*
Y0521529D01*
Y05092D02*
X07846D01*
X0785Y05096D01*
X07854Y05092D01*
X07858D01*
Y05096D01*
X07854Y051D01*
X07858Y05104D01*
Y05108D01*
X07854D01*
X0785Y05104D01*
X07846Y05108D01*
X07842D01*
Y05104D01*
X07846Y051D01*
X07842Y05096D01*
Y05092D01*
X07742D02*
X07746D01*
X0775Y05096D01*
X07754Y05092D01*
X07758D01*
Y05096D01*
X07754Y051D01*
X07758Y05104D01*
Y05108D01*
X07754D01*
X0775Y05104D01*
X07746Y05108D01*
X07742D01*
Y05104D01*
X07746Y051D01*
X07742Y05096D01*
Y05092D01*
Y0521529D02*
X07746D01*
X0775Y0521929D01*
X07754Y0521529D01*
X07758D01*
Y0521929D01*
X07754Y0522329D01*
X07758Y0522729D01*
Y0523129D01*
X07754D01*
X0775Y0522729D01*
X07746Y0523129D01*
X07742D01*
Y0522729D01*
X07746Y0522329D01*
X07742Y0521929D01*
Y0521529D01*
Y0532764D02*
X07746D01*
X0775Y0533164D01*
X07754Y0532764D01*
X07758D01*
Y0533164D01*
X07754Y0533564D01*
X07758Y0533964D01*
Y0534364D01*
X07754D01*
X0775Y0533964D01*
X07746Y0534364D01*
X07742D01*
Y0533964D01*
X07746Y0533564D01*
X07742Y0533164D01*
Y0532764D01*
X07642D02*
X07646D01*
X0765Y0533164D01*
X07654Y0532764D01*
X07658D01*
Y0533164D01*
X07654Y0533564D01*
X07658Y0533964D01*
Y0534364D01*
X07654D01*
X0765Y0533964D01*
X07646Y0534364D01*
X07642D01*
Y0533964D01*
X07646Y0533564D01*
X07642Y0533164D01*
Y0532764D01*
Y0521529D02*
X07646D01*
X0765Y0521929D01*
X07654Y0521529D01*
X07658D01*
Y0521929D01*
X07654Y0522329D01*
X07658Y0522729D01*
Y0523129D01*
X07654D01*
X0765Y0522729D01*
X07646Y0523129D01*
X07642D01*
Y0522729D01*
X07646Y0522329D01*
X07642Y0521929D01*
Y0521529D01*
Y05092D02*
X07646D01*
X0765Y05096D01*
X07654Y05092D01*
X07658D01*
Y05096D01*
X07654Y051D01*
X07658Y05104D01*
Y05108D01*
X07654D01*
X0765Y05104D01*
X07646Y05108D01*
X07642D01*
Y05104D01*
X07646Y051D01*
X07642Y05096D01*
Y05092D01*
Y0498358D02*
X07646D01*
X0765Y0498758D01*
X07654Y0498358D01*
X07658D01*
Y0498758D01*
X07654Y0499158D01*
X07658Y0499558D01*
Y0499958D01*
X07654D01*
X0765Y0499558D01*
X07646Y0499958D01*
X07642D01*
Y0499558D01*
X07646Y0499158D01*
X07642Y0498758D01*
Y0498358D01*
X07742D02*
X07746D01*
X0775Y0498758D01*
X07754Y0498358D01*
X07758D01*
Y0498758D01*
X07754Y0499158D01*
X07758Y0499558D01*
Y0499958D01*
X07754D01*
X0775Y0499558D01*
X07746Y0499958D01*
X07742D01*
Y0499558D01*
X07746Y0499158D01*
X07742Y0498758D01*
Y0498358D01*
X07842D02*
X07846D01*
X0785Y0498758D01*
X07854Y0498358D01*
X07858D01*
Y0498758D01*
X07854Y0499158D01*
X07858Y0499558D01*
Y0499958D01*
X07854D01*
X0785Y0499558D01*
X07846Y0499958D01*
X07842D01*
Y0499558D01*
X07846Y0499158D01*
X07842Y0498758D01*
Y0498358D01*
X07942D02*
X07946D01*
X0795Y0498758D01*
X07954Y0498358D01*
X07958D01*
Y0498758D01*
X07954Y0499158D01*
X07958Y0499558D01*
Y0499958D01*
X07954D01*
X0795Y0499558D01*
X07946Y0499958D01*
X07942D01*
Y0499558D01*
X07946Y0499158D01*
X07942Y0498758D01*
Y0498358D01*
X08042D02*
X08046D01*
X0805Y0498758D01*
X08054Y0498358D01*
X08058D01*
Y0498758D01*
X08054Y0499158D01*
X08058Y0499558D01*
Y0499958D01*
X08054D01*
X0805Y0499558D01*
X08046Y0499958D01*
X08042D01*
Y0499558D01*
X08046Y0499158D01*
X08042Y0498758D01*
Y0498358D01*
Y04542D02*
X08046D01*
X0805Y04546D01*
X08054Y04542D01*
X08058D01*
Y04546D01*
X08054Y0455D01*
X08058Y04554D01*
Y04558D01*
X08054D01*
X0805Y04554D01*
X08046Y04558D01*
X08042D01*
Y04554D01*
X08046Y0455D01*
X08042Y04546D01*
Y04542D01*
X07942D02*
X07946D01*
X0795Y04546D01*
X07954Y04542D01*
X07958D01*
Y04546D01*
X07954Y0455D01*
X07958Y04554D01*
Y04558D01*
X07954D01*
X0795Y04554D01*
X07946Y04558D01*
X07942D01*
Y04554D01*
X07946Y0455D01*
X07942Y04546D01*
Y04542D01*
X07842D02*
X07846D01*
X0785Y04546D01*
X07854Y04542D01*
X07858D01*
Y04546D01*
X07854Y0455D01*
X07858Y04554D01*
Y04558D01*
X07854D01*
X0785Y04554D01*
X07846Y04558D01*
X07842D01*
Y04554D01*
X07846Y0455D01*
X07842Y04546D01*
Y04542D01*
X07742D02*
X07746D01*
X0775Y04546D01*
X07754Y04542D01*
X07758D01*
Y04546D01*
X07754Y0455D01*
X07758Y04554D01*
Y04558D01*
X07754D01*
X0775Y04554D01*
X07746Y04558D01*
X07742D01*
Y04554D01*
X07746Y0455D01*
X07742Y04546D01*
Y04542D01*
X07642D02*
X07646D01*
X0765Y04546D01*
X07654Y04542D01*
X07658D01*
Y04546D01*
X07654Y0455D01*
X07658Y04554D01*
Y04558D01*
X07654D01*
X0765Y04554D01*
X07646Y04558D01*
X07642D01*
Y04554D01*
X07646Y0455D01*
X07642Y04546D01*
Y04542D01*
X08152Y04642D02*
X08156D01*
X0816Y04646D01*
X08164Y04642D01*
X08168D01*
Y04646D01*
X08164Y0465D01*
X08168Y04654D01*
Y04658D01*
X08164D01*
X0816Y04654D01*
X08156Y04658D01*
X08152D01*
Y04654D01*
X08156Y0465D01*
X08152Y04646D01*
Y04642D01*
X08042D02*
X08046D01*
X0805Y04646D01*
X08054Y04642D01*
X08058D01*
Y04646D01*
X08054Y0465D01*
X08058Y04654D01*
Y04658D01*
X08054D01*
X0805Y04654D01*
X08046Y04658D01*
X08042D01*
Y04654D01*
X08046Y0465D01*
X08042Y04646D01*
Y04642D01*
X07942D02*
X07946D01*
X0795Y04646D01*
X07954Y04642D01*
X07958D01*
Y04646D01*
X07954Y0465D01*
X07958Y04654D01*
Y04658D01*
X07954D01*
X0795Y04654D01*
X07946Y04658D01*
X07942D01*
Y04654D01*
X07946Y0465D01*
X07942Y04646D01*
Y04642D01*
X07842D02*
X07846D01*
X0785Y04646D01*
X07854Y04642D01*
X07858D01*
Y04646D01*
X07854Y0465D01*
X07858Y04654D01*
Y04658D01*
X07854D01*
X0785Y04654D01*
X07846Y04658D01*
X07842D01*
Y04654D01*
X07846Y0465D01*
X07842Y04646D01*
Y04642D01*
X07742D02*
X07746D01*
X0775Y04646D01*
X07754Y04642D01*
X07758D01*
Y04646D01*
X07754Y0465D01*
X07758Y04654D01*
Y04658D01*
X07754D01*
X0775Y04654D01*
X07746Y04658D01*
X07742D01*
Y04654D01*
X07746Y0465D01*
X07742Y04646D01*
Y04642D01*
X07642D02*
X07646D01*
X0765Y04646D01*
X07654Y04642D01*
X07658D01*
Y04646D01*
X07654Y0465D01*
X07658Y04654D01*
Y04658D01*
X07654D01*
X0765Y04654D01*
X07646Y04658D01*
X07642D01*
Y04654D01*
X07646Y0465D01*
X07642Y04646D01*
Y04642D01*
X08152Y04742D02*
X08156D01*
X0816Y04746D01*
X08164Y04742D01*
X08168D01*
Y04746D01*
X08164Y0475D01*
X08168Y04754D01*
Y04758D01*
X08164D01*
X0816Y04754D01*
X08156Y04758D01*
X08152D01*
Y04754D01*
X08156Y0475D01*
X08152Y04746D01*
Y04742D01*
X08042D02*
X08046D01*
X0805Y04746D01*
X08054Y04742D01*
X08058D01*
Y04746D01*
X08054Y0475D01*
X08058Y04754D01*
Y04758D01*
X08054D01*
X0805Y04754D01*
X08046Y04758D01*
X08042D01*
Y04754D01*
X08046Y0475D01*
X08042Y04746D01*
Y04742D01*
X07942D02*
X07946D01*
X0795Y04746D01*
X07954Y04742D01*
X07958D01*
Y04746D01*
X07954Y0475D01*
X07958Y04754D01*
Y04758D01*
X07954D01*
X0795Y04754D01*
X07946Y04758D01*
X07942D01*
Y04754D01*
X07946Y0475D01*
X07942Y04746D01*
Y04742D01*
X07842D02*
X07846D01*
X0785Y04746D01*
X07854Y04742D01*
X07858D01*
Y04746D01*
X07854Y0475D01*
X07858Y04754D01*
Y04758D01*
X07854D01*
X0785Y04754D01*
X07846Y04758D01*
X07842D01*
Y04754D01*
X07846Y0475D01*
X07842Y04746D01*
Y04742D01*
X07742D02*
X07746D01*
X0775Y04746D01*
X07754Y04742D01*
X07758D01*
Y04746D01*
X07754Y0475D01*
X07758Y04754D01*
Y04758D01*
X07754D01*
X0775Y04754D01*
X07746Y04758D01*
X07742D01*
Y04754D01*
X07746Y0475D01*
X07742Y04746D01*
Y04742D01*
X07642D02*
X07646D01*
X0765Y04746D01*
X07654Y04742D01*
X07658D01*
Y04746D01*
X07654Y0475D01*
X07658Y04754D01*
Y04758D01*
X07654D01*
X0765Y04754D01*
X07646Y04758D01*
X07642D01*
Y04754D01*
X07646Y0475D01*
X07642Y04746D01*
Y04742D01*
Y0483357D02*
X07646D01*
X0765Y0483757D01*
X07654Y0483357D01*
X07658D01*
Y0483757D01*
X07654Y0484158D01*
X07658Y0484557D01*
Y0484958D01*
X07654D01*
X0765Y0484557D01*
X07646Y0484958D01*
X07642D01*
Y0484557D01*
X07646Y0484158D01*
X07642Y0483757D01*
Y0483357D01*
X07742D02*
X07746D01*
X0775Y0483757D01*
X07754Y0483357D01*
X07758D01*
Y0483757D01*
X07754Y0484158D01*
X07758Y0484557D01*
Y0484958D01*
X07754D01*
X0775Y0484557D01*
X07746Y0484958D01*
X07742D01*
Y0484557D01*
X07746Y0484158D01*
X07742Y0483757D01*
Y0483357D01*
X07842D02*
X07846D01*
X0785Y0483757D01*
X07854Y0483357D01*
X07858D01*
Y0483757D01*
X07854Y0484158D01*
X07858Y0484557D01*
Y0484958D01*
X07854D01*
X0785Y0484557D01*
X07846Y0484958D01*
X07842D01*
Y0484557D01*
X07846Y0484158D01*
X07842Y0483757D01*
Y0483357D01*
X07942D02*
X07946D01*
X0795Y0483757D01*
X07954Y0483357D01*
X07958D01*
Y0483757D01*
X07954Y0484158D01*
X07958Y0484557D01*
Y0484958D01*
X07954D01*
X0795Y0484557D01*
X07946Y0484958D01*
X07942D01*
Y0484557D01*
X07946Y0484158D01*
X07942Y0483757D01*
Y0483357D01*
X08042D02*
X08046D01*
X0805Y0483757D01*
X08054Y0483357D01*
X08058D01*
Y0483757D01*
X08054Y0484158D01*
X08058Y0484557D01*
Y0484958D01*
X08054D01*
X0805Y0484557D01*
X08046Y0484958D01*
X08042D01*
Y0484557D01*
X08046Y0484158D01*
X08042Y0483757D01*
Y0483357D01*
X07456Y0477223D02*
Y0476823D01*
X07464D01*
Y0477223D01*
X07468D01*
Y0478023D01*
X07464D01*
Y0478423D01*
X07456D01*
Y0478023D01*
X07452D01*
Y0477223D01*
X07456D01*
X07492Y04574D02*
X07496D01*
X075Y04578D01*
X07504Y04574D01*
X07508D01*
Y04578D01*
X07504Y04582D01*
X07508Y04586D01*
Y0459D01*
X07504D01*
X075Y04586D01*
X07496Y0459D01*
X07492D01*
Y04586D01*
X07496Y04582D01*
X07492Y04578D01*
Y04574D01*
X07166Y05171D02*
X0717D01*
X07174Y05175D01*
X07178Y05171D01*
X07182D01*
Y05175D01*
X07178Y05179D01*
X07182Y05183D01*
Y05187D01*
X07178D01*
X07174Y05183D01*
X0717Y05187D01*
X07166D01*
Y05183D01*
X0717Y05179D01*
X07166Y05175D01*
Y05171D01*
X05242Y05292D02*
X05246D01*
X0525Y05296D01*
X05254Y05292D01*
X05258D01*
Y05296D01*
X05254Y053D01*
X05258Y05304D01*
Y05308D01*
X05254D01*
X0525Y05304D01*
X05246Y05308D01*
X05242D01*
Y05304D01*
X05246Y053D01*
X05242Y05296D01*
Y05292D01*
X05342D02*
X05346D01*
X0535Y05296D01*
X05354Y05292D01*
X05358D01*
Y05296D01*
X05354Y053D01*
X05358Y05304D01*
Y05308D01*
X05354D01*
X0535Y05304D01*
X05346Y05308D01*
X05342D01*
Y05304D01*
X05346Y053D01*
X05342Y05296D01*
Y05292D01*
Y05192D02*
X05346D01*
X0535Y05196D01*
X05354Y05192D01*
X05358D01*
Y05196D01*
X05354Y052D01*
X05358Y05204D01*
Y05208D01*
X05354D01*
X0535Y05204D01*
X05346Y05208D01*
X05342D01*
Y05204D01*
X05346Y052D01*
X05342Y05196D01*
Y05192D01*
X05242D02*
X05246D01*
X0525Y05196D01*
X05254Y05192D01*
X05258D01*
Y05196D01*
X05254Y052D01*
X05258Y05204D01*
Y05208D01*
X05254D01*
X0525Y05204D01*
X05246Y05208D01*
X05242D01*
Y05204D01*
X05246Y052D01*
X05242Y05196D01*
Y05192D01*
X05146D02*
X0515D01*
X05154Y05196D01*
X05158Y05192D01*
X05162D01*
Y05196D01*
X05158Y052D01*
X05162Y05204D01*
Y05208D01*
X05158D01*
X05154Y05204D01*
X0515Y05208D01*
X05146D01*
Y05204D01*
X0515Y052D01*
X05146Y05196D01*
Y05192D01*
X05142Y05092D02*
X05146D01*
X0515Y05096D01*
X05154Y05092D01*
X05158D01*
Y05096D01*
X05154Y051D01*
X05158Y05104D01*
Y05108D01*
X05154D01*
X0515Y05104D01*
X05146Y05108D01*
X05142D01*
Y05104D01*
X05146Y051D01*
X05142Y05096D01*
Y05092D01*
X05342D02*
X05346D01*
X0535Y05096D01*
X05354Y05092D01*
X05358D01*
Y05096D01*
X05354Y051D01*
X05358Y05104D01*
Y05108D01*
X05354D01*
X0535Y05104D01*
X05346Y05108D01*
X05342D01*
Y05104D01*
X05346Y051D01*
X05342Y05096D01*
Y05092D01*
X05242D02*
X05246D01*
X0525Y05096D01*
X05254Y05092D01*
X05258D01*
Y05096D01*
X05254Y051D01*
X05258Y05104D01*
Y05108D01*
X05254D01*
X0525Y05104D01*
X05246Y05108D01*
X05242D01*
Y05104D01*
X05246Y051D01*
X05242Y05096D01*
Y05092D01*
X05142Y0499347D02*
X05146D01*
X0515Y0499747D01*
X05154Y0499347D01*
X05158D01*
Y0499747D01*
X05154Y0500147D01*
X05158Y0500547D01*
Y0500947D01*
X05154D01*
X0515Y0500547D01*
X05146Y0500947D01*
X05142D01*
Y0500547D01*
X05146Y0500147D01*
X05142Y0499747D01*
Y0499347D01*
X05242Y04992D02*
X05246D01*
X0525Y04996D01*
X05254Y04992D01*
X05258D01*
Y04996D01*
X05254Y05D01*
X05258Y05004D01*
Y05008D01*
X05254D01*
X0525Y05004D01*
X05246Y05008D01*
X05242D01*
Y05004D01*
X05246Y05D01*
X05242Y04996D01*
Y04992D01*
X05342D02*
X05346D01*
X0535Y04996D01*
X05354Y04992D01*
X05358D01*
Y04996D01*
X05354Y05D01*
X05358Y05004D01*
Y05008D01*
X05354D01*
X0535Y05004D01*
X05346Y05008D01*
X05342D01*
Y05004D01*
X05346Y05D01*
X05342Y04996D01*
Y04992D01*
X05242Y04542D02*
X05246D01*
X0525Y04546D01*
X05254Y04542D01*
X05258D01*
Y04546D01*
X05254Y0455D01*
X05258Y04554D01*
Y04558D01*
X05254D01*
X0525Y04554D01*
X05246Y04558D01*
X05242D01*
Y04554D01*
X05246Y0455D01*
X05242Y04546D01*
Y04542D01*
Y04642D02*
X05246D01*
X0525Y04646D01*
X05254Y04642D01*
X05258D01*
Y04646D01*
X05254Y0465D01*
X05258Y04654D01*
Y04658D01*
X05254D01*
X0525Y04654D01*
X05246Y04658D01*
X05242D01*
Y04654D01*
X05246Y0465D01*
X05242Y04646D01*
Y04642D01*
X05142D02*
X05146D01*
X0515Y04646D01*
X05154Y04642D01*
X05158D01*
Y04646D01*
X05154Y0465D01*
X05158Y04654D01*
Y04658D01*
X05154D01*
X0515Y04654D01*
X05146Y04658D01*
X05142D01*
Y04654D01*
X05146Y0465D01*
X05142Y04646D01*
Y04642D01*
X05242Y04752D02*
X05246D01*
X0525Y04756D01*
X05254Y04752D01*
X05258D01*
Y04756D01*
X05254Y0476D01*
X05258Y04764D01*
Y04768D01*
X05254D01*
X0525Y04764D01*
X05246Y04768D01*
X05242D01*
Y04764D01*
X05246Y0476D01*
X05242Y04756D01*
Y04752D01*
X05142Y0486018D02*
X05146D01*
X0515Y0486418D01*
X05154Y0486018D01*
X05158D01*
Y0486418D01*
X05154Y0486818D01*
X05158Y0487218D01*
Y0487618D01*
X05154D01*
X0515Y0487218D01*
X05146Y0487618D01*
X05142D01*
Y0487218D01*
X05146Y0486818D01*
X05142Y0486418D01*
Y0486018D01*
X06356Y0701098D02*
X0636D01*
X06364Y0701498D01*
X06368Y0701098D01*
X06372D01*
Y0701498D01*
X06368Y0701898D01*
X06372Y0702298D01*
Y0702698D01*
X06368D01*
X06364Y0702298D01*
X0636Y0702698D01*
X06356D01*
Y0702298D01*
X0636Y0701898D01*
X06356Y0701498D01*
Y0701098D01*
X0643234Y07466D02*
Y07462D01*
X0644034D01*
Y07466D01*
X0644434D01*
Y07474D01*
X0644034D01*
Y07478D01*
X0643234D01*
Y07474D01*
X0642834D01*
Y07466D01*
X0643234D01*
Y0739583D02*
Y0739183D01*
X0644034D01*
Y0739583D01*
X0644434D01*
Y0740383D01*
X0644034D01*
Y0740783D01*
X0643234D01*
Y0740383D01*
X0642834D01*
Y0739583D01*
X0643234D01*
X05751Y0728039D02*
X05755D01*
X05759Y0728439D01*
X05763Y0728039D01*
X05767D01*
Y0728439D01*
X05763Y0728839D01*
X05767Y0729239D01*
Y0729639D01*
X05763D01*
X05759Y0729239D01*
X05755Y0729639D01*
X05751D01*
Y0729239D01*
X05755Y0728839D01*
X05751Y0728439D01*
Y0728039D01*
X081836Y0695482D02*
Y0695082D01*
X081916D01*
Y0695482D01*
X081956D01*
Y0696282D01*
X081916D01*
Y0696682D01*
X081836D01*
Y0696282D01*
X081796D01*
Y0695482D01*
X081836D01*
Y0706018D02*
Y0705618D01*
X081916D01*
Y0706018D01*
X081956D01*
Y0706818D01*
X081916D01*
Y0707218D01*
X081836D01*
Y0706818D01*
X081796D01*
Y0706018D01*
X081836D01*
Y07165D02*
Y07161D01*
X081916D01*
Y07165D01*
X081956D01*
Y07173D01*
X081916D01*
Y07177D01*
X081836D01*
Y07173D01*
X081796D01*
Y07165D01*
X081836D01*
Y0726895D02*
Y0726495D01*
X081916D01*
Y0726895D01*
X081956D01*
Y0727695D01*
X081916D01*
Y0728095D01*
X081836D01*
Y0727695D01*
X081796D01*
Y0726895D01*
X081836D01*
Y07382D02*
Y07378D01*
X081916D01*
Y07382D01*
X081956D01*
Y0739D01*
X081916D01*
Y07394D01*
X081836D01*
Y0739D01*
X081796D01*
Y07382D01*
X081836D01*
X0739637Y05536D02*
Y05532D01*
X0740437D01*
Y05536D01*
X0740837D01*
Y05544D01*
X0740437D01*
Y05548D01*
X0739637D01*
Y05544D01*
X0739237D01*
Y05536D01*
X0739637D01*
X0813531Y0424567D02*
X0814331Y0425367D01*
X0815131Y0424567D01*
X0814331Y0423767D01*
X0813531Y0424567D01*
X0798767Y0430669D02*
X0799567Y0431469D01*
X0800367Y0430669D01*
X0799567Y0429869D01*
X0798767Y0430669D01*
X0804869Y0445433D02*
X0805669Y0446233D01*
X0806469Y0445433D01*
X0805669Y0444633D01*
X0804869Y0445433D01*
X0819633Y0439331D02*
X0820433Y0440131D01*
X0821233Y0439331D01*
X0820433Y0438531D01*
X0819633Y0439331D01*
X0798767D02*
X0799567Y0440131D01*
X0800367Y0439331D01*
X0799567Y0438531D01*
X0798767Y0439331D01*
X0813531Y0445433D02*
X0814331Y0446233D01*
X0815131Y0445433D01*
X0814331Y0444633D01*
X0813531Y0445433D01*
X0819633Y0430669D02*
X0820433Y0431469D01*
X0821233Y0430669D01*
X0820433Y0429869D01*
X0819633Y0430669D01*
X0804869Y0424567D02*
X0805669Y0425367D01*
X0806469Y0424567D01*
X0805669Y0423767D01*
X0804869Y0424567D01*
X05848Y04919D02*
Y04915D01*
X05856D01*
Y04919D01*
X0586D01*
Y04927D01*
X05856D01*
Y04931D01*
X05848D01*
Y04927D01*
X05844D01*
Y04919D01*
X05848D01*
X0573331Y0501231D02*
Y0500832D01*
X0574131D01*
Y0501231D01*
X0574532D01*
Y0502032D01*
X0574131D01*
Y0502431D01*
X0573331D01*
Y0502032D01*
X0572931D01*
Y0501231D01*
X0573331D01*
X0569356Y0525832D02*
X0569756D01*
X0570156Y0526231D01*
X0570556Y0525832D01*
X0570956D01*
Y0526231D01*
X0570556Y0526631D01*
X0570956Y0527032D01*
Y0527431D01*
X0570556D01*
X0570156Y0527032D01*
X0569756Y0527431D01*
X0569356D01*
Y0527032D01*
X0569756Y0526631D01*
X0569356Y0526231D01*
Y0525832D01*
X06846Y0453289D02*
Y0452889D01*
X06854D01*
Y0453289D01*
X06858D01*
Y0454089D01*
X06854D01*
Y0454489D01*
X06846D01*
Y0454089D01*
X06842D01*
Y0453289D01*
X06846D01*
X06067Y0466914D02*
X06071D01*
X06075Y0467314D01*
X06079Y0466914D01*
X06083D01*
Y0467314D01*
X06079Y0467714D01*
X06083Y0468114D01*
Y0468514D01*
X06079D01*
X06075Y0468114D01*
X06071Y0468514D01*
X06067D01*
Y0468114D01*
X06071Y0467714D01*
X06067Y0467314D01*
Y0466914D01*
X06924Y0466015D02*
Y0465615D01*
X06932D01*
Y0466015D01*
X06936D01*
Y0466815D01*
X06932D01*
Y0467215D01*
X06924D01*
Y0466815D01*
X0692D01*
Y0466015D01*
X06924D01*
X06026Y05236D02*
Y05232D01*
X06034D01*
Y05236D01*
X06038D01*
Y05244D01*
X06034D01*
Y05248D01*
X06026D01*
Y05244D01*
X06022D01*
Y05236D01*
X06026D01*
X06073Y0505968D02*
X06077D01*
X06081Y0506368D01*
X06085Y0505968D01*
X06089D01*
Y0506368D01*
X06085Y0506768D01*
X06089Y0507168D01*
Y0507568D01*
X06085D01*
X06081Y0507168D01*
X06077Y0507568D01*
X06073D01*
Y0507168D01*
X06077Y0506768D01*
X06073Y0506368D01*
Y0505968D01*
X06096Y05236D02*
Y05232D01*
X06104D01*
Y05236D01*
X06108D01*
Y05244D01*
X06104D01*
Y05248D01*
X06096D01*
Y05244D01*
X06092D01*
Y05236D01*
X06096D01*
X06845Y04876D02*
X06849D01*
X06853Y0488D01*
X06857Y04876D01*
X06861D01*
Y0488D01*
X06857Y04884D01*
X06861Y04888D01*
Y04892D01*
X06857D01*
X06853Y04888D01*
X06849Y04892D01*
X06845D01*
Y04888D01*
X06849Y04884D01*
X06845Y0488D01*
Y04876D01*
X06649Y04827D02*
X06653D01*
X06657Y04831D01*
X06661Y04827D01*
X06665D01*
Y04831D01*
X06661Y04835D01*
X06665Y04839D01*
Y04843D01*
X06661D01*
X06657Y04839D01*
X06653Y04843D01*
X06649D01*
Y04839D01*
X06653Y04835D01*
X06649Y04831D01*
Y04827D01*
X06805Y04759D02*
X06809D01*
X06813Y04763D01*
X06817Y04759D01*
X06821D01*
Y04763D01*
X06817Y04767D01*
X06821Y04771D01*
Y04775D01*
X06817D01*
X06813Y04771D01*
X06809Y04775D01*
X06805D01*
Y04771D01*
X06809Y04767D01*
X06805Y04763D01*
Y04759D01*
X06026Y04756D02*
Y04752D01*
X06034D01*
Y04756D01*
X06038D01*
Y04764D01*
X06034D01*
Y04768D01*
X06026D01*
Y04764D01*
X06022D01*
Y04756D01*
X06026D01*
X06096D02*
Y04752D01*
X06104D01*
Y04756D01*
X06108D01*
Y04764D01*
X06104D01*
Y04768D01*
X06096D01*
Y04764D01*
X06092D01*
Y04756D01*
X06096D01*
X06352Y04896D02*
X06356D01*
X0636Y049D01*
X06364Y04896D01*
X06368D01*
Y049D01*
X06364Y04904D01*
X06368Y04908D01*
Y04912D01*
X06364D01*
X0636Y04908D01*
X06356Y04912D01*
X06352D01*
Y04908D01*
X06356Y04904D01*
X06352Y049D01*
Y04896D01*
X07111Y04776D02*
X07115D01*
X07119Y0478D01*
X07123Y04776D01*
X07127D01*
Y0478D01*
X07123Y04784D01*
X07127Y04788D01*
Y04792D01*
X07123D01*
X07119Y04788D01*
X07115Y04792D01*
X07111D01*
Y04788D01*
X07115Y04784D01*
X07111Y0478D01*
Y04776D01*
X06862Y0535862D02*
X06866D01*
X0687Y0536262D01*
X06874Y0535862D01*
X06878D01*
Y0536262D01*
X06874Y0536662D01*
X06878Y0537062D01*
Y0537462D01*
X06874D01*
X0687Y0537062D01*
X06866Y0537462D01*
X06862D01*
Y0537062D01*
X06866Y0536662D01*
X06862Y0536262D01*
Y0535862D01*
X07105Y05158D02*
Y05154D01*
X07113D01*
Y05158D01*
X07117D01*
Y05166D01*
X07113D01*
Y0517D01*
X07105D01*
Y05166D01*
X07101D01*
Y05158D01*
X07105D01*
X0710616Y05097D02*
Y05093D01*
X0711416D01*
Y05097D01*
X0711816D01*
Y05105D01*
X0711416D01*
Y05109D01*
X0710616D01*
Y05105D01*
X0710216D01*
Y05097D01*
X0710616D01*
X07111Y05268D02*
X07115D01*
X07119Y05272D01*
X07123Y05268D01*
X07127D01*
Y05272D01*
X07123Y05276D01*
X07127Y0528D01*
Y05284D01*
X07123D01*
X07119Y0528D01*
X07115Y05284D01*
X07111D01*
Y0528D01*
X07115Y05276D01*
X07111Y05272D01*
Y05268D01*
X07471Y05321D02*
Y05317D01*
X07479D01*
Y05321D01*
X07483D01*
Y05329D01*
X07479D01*
Y05333D01*
X07471D01*
Y05329D01*
X07467D01*
Y05321D01*
X07471D01*
X07493Y04986D02*
X07497D01*
X07501Y0499D01*
X07505Y04986D01*
X07509D01*
Y0499D01*
X07505Y04994D01*
X07509Y04998D01*
Y05002D01*
X07505D01*
X07501Y04998D01*
X07497Y05002D01*
X07493D01*
Y04998D01*
X07497Y04994D01*
X07493Y0499D01*
Y04986D01*
X05802Y05712D02*
X05806D01*
X0581Y05716D01*
X05814Y05712D01*
X05818D01*
Y05716D01*
X05814Y0572D01*
X05818Y05724D01*
Y05728D01*
X05814D01*
X0581Y05724D01*
X05806Y05728D01*
X05802D01*
Y05724D01*
X05806Y0572D01*
X05802Y05716D01*
Y05712D01*
X06069Y07222D02*
X06073D01*
X06077Y07226D01*
X06081Y07222D01*
X06085D01*
Y07226D01*
X06081Y0723D01*
X06085Y07234D01*
Y07238D01*
X06081D01*
X06077Y07234D01*
X06073Y07238D01*
X06069D01*
Y07234D01*
X06073Y0723D01*
X06069Y07226D01*
Y07222D01*
X06196Y07161D02*
X062D01*
X06204Y07165D01*
X06208Y07161D01*
X06212D01*
Y07165D01*
X06208Y07169D01*
X06212Y07173D01*
Y07177D01*
X06208D01*
X06204Y07173D01*
X062Y07177D01*
X06196D01*
Y07173D01*
X062Y07169D01*
X06196Y07165D01*
Y07161D01*
X05573Y06717D02*
X05577D01*
X05581Y06721D01*
X05585Y06717D01*
X05589D01*
Y06721D01*
X05585Y06725D01*
X05589Y06729D01*
Y06733D01*
X05585D01*
X05581Y06729D01*
X05577Y06733D01*
X05573D01*
Y06729D01*
X05577Y06725D01*
X05573Y06721D01*
Y06717D01*
X0807426Y07165D02*
Y07161D01*
X0808226D01*
Y07165D01*
X0808626D01*
Y07173D01*
X0808226D01*
Y07177D01*
X0807426D01*
Y07173D01*
X0807026D01*
Y07165D01*
X0807426D01*
X0798174Y07382D02*
Y07378D01*
X0798974D01*
Y07382D01*
X0799374D01*
Y0739D01*
X0798974D01*
Y07394D01*
X0798174D01*
Y0739D01*
X0797774D01*
Y07382D01*
X0798174D01*
X0807426D02*
Y07378D01*
X0808226D01*
Y07382D01*
X0808626D01*
Y0739D01*
X0808226D01*
Y07394D01*
X0807426D01*
Y0739D01*
X0807026D01*
Y07382D01*
X0807426D01*
X06537Y07157D02*
X06541D01*
X06545Y07161D01*
X06549Y07157D01*
X06553D01*
Y07161D01*
X06549Y07165D01*
X06553Y07169D01*
Y07173D01*
X06549D01*
X06545Y07169D01*
X06541Y07173D01*
X06537D01*
Y07169D01*
X06541Y07165D01*
X06537Y07161D01*
Y07157D01*
X06531Y06957D02*
X06535D01*
X06539Y06961D01*
X06543Y06957D01*
X06547D01*
Y06961D01*
X06543Y06965D01*
X06547Y06969D01*
Y06973D01*
X06543D01*
X06539Y06969D01*
X06535Y06973D01*
X06531D01*
Y06969D01*
X06535Y06965D01*
X06531Y06961D01*
Y06957D01*
X04883Y0546D02*
X04887D01*
X04891Y05464D01*
X04895Y0546D01*
X04899D01*
Y05464D01*
X04895Y05468D01*
X04899Y05472D01*
Y05476D01*
X04895D01*
X04891Y05472D01*
X04887Y05476D01*
X04883D01*
Y05472D01*
X04887Y05468D01*
X04883Y05464D01*
Y0546D01*
X06292Y06708D02*
X06296D01*
X063Y06712D01*
X06304Y06708D01*
X06308D01*
Y06712D01*
X06304Y06716D01*
X06308Y0672D01*
Y06724D01*
X06304D01*
X063Y0672D01*
X06296Y06724D01*
X06292D01*
Y0672D01*
X06296Y06716D01*
X06292Y06712D01*
Y06708D01*
Y0681413D02*
X06296D01*
X063Y0681813D01*
X06304Y0681413D01*
X06308D01*
Y0681813D01*
X06304Y0682213D01*
X06308Y0682613D01*
Y0683013D01*
X06304D01*
X063Y0682613D01*
X06296Y0683013D01*
X06292D01*
Y0682613D01*
X06296Y0682213D01*
X06292Y0681813D01*
Y0681413D01*
Y0676507D02*
X06296D01*
X063Y0676907D01*
X06304Y0676507D01*
X06308D01*
Y0676907D01*
X06304Y0677307D01*
X06308Y0677707D01*
Y0678107D01*
X06304D01*
X063Y0677707D01*
X06296Y0678107D01*
X06292D01*
Y0677707D01*
X06296Y0677307D01*
X06292Y0676907D01*
Y0676507D01*
X06069Y07153D02*
X06073D01*
X06077Y07157D01*
X06081Y07153D01*
X06085D01*
Y07157D01*
X06081Y07161D01*
X06085Y07165D01*
Y07169D01*
X06081D01*
X06077Y07165D01*
X06073Y07169D01*
X06069D01*
Y07165D01*
X06073Y07161D01*
X06069Y07157D01*
Y07153D01*
X05666Y07096D02*
X0567D01*
X05674Y071D01*
X05678Y07096D01*
X05682D01*
Y071D01*
X05678Y07104D01*
X05682Y07108D01*
Y07112D01*
X05678D01*
X05674Y07108D01*
X0567Y07112D01*
X05666D01*
Y07108D01*
X0567Y07104D01*
X05666Y071D01*
Y07096D01*
X05654Y06836D02*
X05658D01*
X05662Y0684D01*
X05666Y06836D01*
X0567D01*
Y0684D01*
X05666Y06844D01*
X0567Y06848D01*
Y06852D01*
X05666D01*
X05662Y06848D01*
X05658Y06852D01*
X05654D01*
Y06848D01*
X05658Y06844D01*
X05654Y0684D01*
Y06836D01*
X05607Y064085D02*
X05611D01*
X05615Y064125D01*
X05619Y064085D01*
X05623D01*
Y064125D01*
X05619Y064165D01*
X05623Y064205D01*
Y064245D01*
X05619D01*
X05615Y064205D01*
X05611Y064245D01*
X05607D01*
Y064205D01*
X05611Y064165D01*
X05607Y064125D01*
Y064085D01*
Y06317D02*
X05611D01*
X05615Y06321D01*
X05619Y06317D01*
X05623D01*
Y06321D01*
X05619Y06325D01*
X05623Y06329D01*
Y06333D01*
X05619D01*
X05615Y06329D01*
X05611Y06333D01*
X05607D01*
Y06329D01*
X05611Y06325D01*
X05607Y06321D01*
Y06317D01*
X0561Y065D02*
X05614D01*
X05618Y06504D01*
X05622Y065D01*
X05626D01*
Y06504D01*
X05622Y06508D01*
X05626Y06512D01*
Y06516D01*
X05622D01*
X05618Y06512D01*
X05614Y06516D01*
X0561D01*
Y06512D01*
X05614Y06508D01*
X0561Y06504D01*
Y065D01*
X0627209Y07728D02*
X0627609D01*
X0628009Y07732D01*
X0628409Y07728D01*
X0628809D01*
Y07732D01*
X0628409Y07736D01*
X0628809Y0774D01*
Y07744D01*
X0628409D01*
X0628009Y0774D01*
X0627609Y07744D01*
X0627209D01*
Y0774D01*
X0627609Y07736D01*
X0627209Y07732D01*
Y07728D01*
X06525Y07765D02*
X06529D01*
X06533Y07769D01*
X06537Y07765D01*
X06541D01*
Y07769D01*
X06537Y07773D01*
X06541Y07777D01*
Y07781D01*
X06537D01*
X06533Y07777D01*
X06529Y07781D01*
X06525D01*
Y07777D01*
X06529Y07773D01*
X06525Y07769D01*
Y07765D01*
X0681Y07219D02*
X06814D01*
X06818Y07223D01*
X06822Y07219D01*
X06826D01*
Y07223D01*
X06822Y07227D01*
X06826Y07231D01*
Y07235D01*
X06822D01*
X06818Y07231D01*
X06814Y07235D01*
X0681D01*
Y07231D01*
X06814Y07227D01*
X0681Y07223D01*
Y07219D01*
X05222Y0591D02*
X05226D01*
X0523Y05914D01*
X05234Y0591D01*
X05238D01*
Y05914D01*
X05234Y05918D01*
X05238Y05922D01*
Y05926D01*
X05234D01*
X0523Y05922D01*
X05226Y05926D01*
X05222D01*
Y05922D01*
X05226Y05918D01*
X05222Y05914D01*
Y0591D01*
X0513982D02*
X0514382D01*
X0514782Y05914D01*
X0515182Y0591D01*
X0515582D01*
Y05914D01*
X0515182Y05918D01*
X0515582Y05922D01*
Y05926D01*
X0515182D01*
X0514782Y05922D01*
X0514382Y05926D01*
X0513982D01*
Y05922D01*
X0514382Y05918D01*
X0513982Y05914D01*
Y0591D01*
X05019Y06068D02*
X05023D01*
X05027Y06072D01*
X05031Y06068D01*
X05035D01*
Y06072D01*
X05031Y06076D01*
X05035Y0608D01*
Y06084D01*
X05031D01*
X05027Y0608D01*
X05023Y06084D01*
X05019D01*
Y0608D01*
X05023Y06076D01*
X05019Y06072D01*
Y06068D01*
X07705Y0774205D02*
X07709D01*
X07713Y0774606D01*
X07717Y0774205D01*
X07721D01*
Y0774606D01*
X07717Y0775005D01*
X07721Y0775406D01*
Y0775806D01*
X07717D01*
X07713Y0775406D01*
X07709Y0775806D01*
X07705D01*
Y0775406D01*
X07709Y0775005D01*
X07705Y0774606D01*
Y0774205D01*
X05874Y05838D02*
X05878D01*
X05882Y05842D01*
X05886Y05838D01*
X0589D01*
Y05842D01*
X05886Y05846D01*
X0589Y0585D01*
Y05854D01*
X05886D01*
X05882Y0585D01*
X05878Y05854D01*
X05874D01*
Y0585D01*
X05878Y05846D01*
X05874Y05842D01*
Y05838D01*
X05674D02*
X05678D01*
X05682Y05842D01*
X05686Y05838D01*
X0569D01*
Y05842D01*
X05686Y05846D01*
X0569Y0585D01*
Y05854D01*
X05686D01*
X05682Y0585D01*
X05678Y05854D01*
X05674D01*
Y0585D01*
X05678Y05846D01*
X05674Y05842D01*
Y05838D01*
X05464D02*
X05468D01*
X05472Y05842D01*
X05476Y05838D01*
X0548D01*
Y05842D01*
X05476Y05846D01*
X0548Y0585D01*
Y05854D01*
X05476D01*
X05472Y0585D01*
X05468Y05854D01*
X05464D01*
Y0585D01*
X05468Y05846D01*
X05464Y05842D01*
Y05838D01*
X05472Y06099D02*
X05476D01*
X0548Y06103D01*
X05484Y06099D01*
X05488D01*
Y06103D01*
X05484Y06107D01*
X05488Y06111D01*
Y06115D01*
X05484D01*
X0548Y06111D01*
X05476Y06115D01*
X05472D01*
Y06111D01*
X05476Y06107D01*
X05472Y06103D01*
Y06099D01*
X05442Y06672D02*
X05446D01*
X0545Y06676D01*
X05454Y06672D01*
X05458D01*
Y06676D01*
X05454Y0668D01*
X05458Y06684D01*
Y06688D01*
X05454D01*
X0545Y06684D01*
X05446Y06688D01*
X05442D01*
Y06684D01*
X05446Y0668D01*
X05442Y06676D01*
Y06672D01*
X05482Y06632D02*
X05486D01*
X0549Y06636D01*
X05494Y06632D01*
X05498D01*
Y06636D01*
X05494Y0664D01*
X05498Y06644D01*
Y06648D01*
X05494D01*
X0549Y06644D01*
X05486Y06648D01*
X05482D01*
Y06644D01*
X05486Y0664D01*
X05482Y06636D01*
Y06632D01*
X05522Y06592D02*
X05526D01*
X0553Y06596D01*
X05534Y06592D01*
X05538D01*
Y06596D01*
X05534Y066D01*
X05538Y06604D01*
Y06608D01*
X05534D01*
X0553Y06604D01*
X05526Y06608D01*
X05522D01*
Y06604D01*
X05526Y066D01*
X05522Y06596D01*
Y06592D01*
X05562Y06552D02*
X05566D01*
X0557Y06556D01*
X05574Y06552D01*
X05578D01*
Y06556D01*
X05574Y0656D01*
X05578Y06564D01*
Y06568D01*
X05574D01*
X0557Y06564D01*
X05566Y06568D01*
X05562D01*
Y06564D01*
X05566Y0656D01*
X05562Y06556D01*
Y06552D01*
X056971Y064599D02*
X057011D01*
X057051Y064639D01*
X057091Y064599D01*
X057131D01*
Y064639D01*
X057091Y064679D01*
X057131Y064719D01*
Y064759D01*
X057091D01*
X057051Y064719D01*
X057011Y064759D01*
X056971D01*
Y064719D01*
X057011Y064679D01*
X056971Y064639D01*
Y064599D01*
X0627209Y07652D02*
X0627609D01*
X0628009Y07656D01*
X0628409Y07652D01*
X0628809D01*
Y07656D01*
X0628409Y0766D01*
X0628809Y07664D01*
Y07668D01*
X0628409D01*
X0628009Y07664D01*
X0627609Y07668D01*
X0627209D01*
Y07664D01*
X0627609Y0766D01*
X0627209Y07656D01*
Y07652D01*
X05538Y06316D02*
X05542D01*
X05546Y0632D01*
X0555Y06316D01*
X05554D01*
Y0632D01*
X0555Y06324D01*
X05554Y06328D01*
Y06332D01*
X0555D01*
X05546Y06328D01*
X05542Y06332D01*
X05538D01*
Y06328D01*
X05542Y06324D01*
X05538Y0632D01*
Y06316D01*
X05639Y0606762D02*
X05643D01*
X05647Y0607162D01*
X05651Y0606762D01*
X05655D01*
Y0607162D01*
X05651Y0607562D01*
X05655Y0607962D01*
Y0608362D01*
X05651D01*
X05647Y0607962D01*
X05643Y0608362D01*
X05639D01*
Y0607962D01*
X05643Y0607562D01*
X05639Y0607162D01*
Y0606762D01*
X05763Y06005D02*
X05767D01*
X05771Y06009D01*
X05775Y06005D01*
X05779D01*
Y06009D01*
X05775Y06013D01*
X05779Y06017D01*
Y06021D01*
X05775D01*
X05771Y06017D01*
X05767Y06021D01*
X05763D01*
Y06017D01*
X05767Y06013D01*
X05763Y06009D01*
Y06005D01*
X05523Y06046D02*
X05527D01*
X05531Y0605D01*
X05535Y06046D01*
X05539D01*
Y0605D01*
X05535Y06054D01*
X05539Y06058D01*
Y06062D01*
X05535D01*
X05531Y06058D01*
X05527Y06062D01*
X05523D01*
Y06058D01*
X05527Y06054D01*
X05523Y0605D01*
Y06046D01*
X0617Y06652D02*
X06174D01*
X06178Y06656D01*
X06182Y06652D01*
X06186D01*
Y06656D01*
X06182Y0666D01*
X06186Y06664D01*
Y06668D01*
X06182D01*
X06178Y06664D01*
X06174Y06668D01*
X0617D01*
Y06664D01*
X06174Y0666D01*
X0617Y06656D01*
Y06652D01*
X05872Y07263D02*
X05876D01*
X0588Y07267D01*
X05884Y07263D01*
X05888D01*
Y07267D01*
X05884Y07271D01*
X05888Y07275D01*
Y07279D01*
X05884D01*
X0588Y07275D01*
X05876Y07279D01*
X05872D01*
Y07275D01*
X05876Y07271D01*
X05872Y07267D01*
Y07263D01*
X0547054Y06846D02*
X0547454D01*
X0547854Y0685D01*
X0548254Y06846D01*
X0548654D01*
Y0685D01*
X0548254Y06854D01*
X0548654Y06858D01*
Y06862D01*
X0548254D01*
X0547854Y06858D01*
X0547454Y06862D01*
X0547054D01*
Y06858D01*
X0547454Y06854D01*
X0547054Y0685D01*
Y06846D01*
X0545572Y07205D02*
X0545972D01*
X0546372Y07209D01*
X0546772Y07205D01*
X0547172D01*
Y07209D01*
X0546772Y07213D01*
X0547172Y07217D01*
Y07221D01*
X0546772D01*
X0546372Y07217D01*
X0545972Y07221D01*
X0545572D01*
Y07217D01*
X0545972Y07213D01*
X0545572Y07209D01*
Y07205D01*
X06356Y0706947D02*
X0636D01*
X06364Y0707347D01*
X06368Y0706947D01*
X06372D01*
Y0707347D01*
X06368Y0707747D01*
X06372Y0708147D01*
Y0708547D01*
X06368D01*
X06364Y0708147D01*
X0636Y0708547D01*
X06356D01*
Y0708147D01*
X0636Y0707747D01*
X06356Y0707347D01*
Y0706947D01*
X073408Y0611999D02*
X073448D01*
X073488Y0612399D01*
X073528Y0611999D01*
X073568D01*
Y0612399D01*
X073528Y0612799D01*
X073568Y0613199D01*
Y0613599D01*
X073528D01*
X073488Y0613199D01*
X073448Y0613599D01*
X073408D01*
Y0613199D01*
X073448Y0612799D01*
X073408Y0612399D01*
Y0611999D01*
X0504531Y0424567D02*
X0505331Y0425367D01*
X0506131Y0424567D01*
X0505331Y0423767D01*
X0504531Y0424567D01*
X0489767Y0430669D02*
X0490567Y0431469D01*
X0491367Y0430669D01*
X0490567Y0429869D01*
X0489767Y0430669D01*
X0495869Y0445433D02*
X0496669Y0446233D01*
X0497469Y0445433D01*
X0496669Y0444633D01*
X0495869Y0445433D01*
X0510633Y0439331D02*
X0511433Y0440131D01*
X0512233Y0439331D01*
X0511433Y0438531D01*
X0510633Y0439331D01*
X0489767D02*
X0490567Y0440131D01*
X0491367Y0439331D01*
X0490567Y0438531D01*
X0489767Y0439331D01*
X0504531Y0445433D02*
X0505331Y0446233D01*
X0506131Y0445433D01*
X0505331Y0444633D01*
X0504531Y0445433D01*
X0510633Y0430669D02*
X0511433Y0431469D01*
X0512233Y0430669D01*
X0511433Y0429869D01*
X0510633Y0430669D01*
X0495869Y0424567D02*
X0496669Y0425367D01*
X0497469Y0424567D01*
X0496669Y0423767D01*
X0495869Y0424567D01*
X07705Y0766984D02*
X07709D01*
X07713Y0767384D01*
X07717Y0766984D01*
X07721D01*
Y0767384D01*
X07717Y0767784D01*
X07721Y0768184D01*
Y0768584D01*
X07717D01*
X07713Y0768184D01*
X07709Y0768584D01*
X07705D01*
Y0768184D01*
X07709Y0767784D01*
X07705Y0767384D01*
Y0766984D01*
X07672Y07018D02*
X07676D01*
X0768Y07022D01*
X07684Y07018D01*
X07688D01*
Y07022D01*
X07684Y07026D01*
X07688Y0703D01*
Y07034D01*
X07684D01*
X0768Y0703D01*
X07676Y07034D01*
X07672D01*
Y0703D01*
X07676Y07026D01*
X07672Y07022D01*
Y07018D01*
X07347Y07402D02*
X07351D01*
X07355Y07406D01*
X07359Y07402D01*
X07363D01*
Y07406D01*
X07359Y0741D01*
X07363Y07414D01*
Y07418D01*
X07359D01*
X07355Y07414D01*
X07351Y07418D01*
X07347D01*
Y07414D01*
X07351Y0741D01*
X07347Y07406D01*
Y07402D01*
X0789799Y06327D02*
X0790199D01*
X0790599Y06331D01*
X0790999Y06327D01*
X0791399D01*
Y06331D01*
X0790999Y06335D01*
X0791399Y06339D01*
Y06343D01*
X0790999D01*
X0790599Y06339D01*
X0790199Y06343D01*
X0789799D01*
Y06339D01*
X0790199Y06335D01*
X0789799Y06331D01*
Y06327D01*
X0782528D02*
X0782929D01*
X0783328Y06331D01*
X0783729Y06327D01*
X0784129D01*
Y06331D01*
X0783729Y06335D01*
X0784129Y06339D01*
Y06343D01*
X0783729D01*
X0783328Y06339D01*
X0782929Y06343D01*
X0782528D01*
Y06339D01*
X0782929Y06335D01*
X0782528Y06331D01*
Y06327D01*
X0797199Y0626D02*
X0797599D01*
X0797999Y06264D01*
X0798399Y0626D01*
X0798799D01*
Y06264D01*
X0798399Y06268D01*
X0798799Y06272D01*
Y06276D01*
X0798399D01*
X0797999Y06272D01*
X0797599Y06276D01*
X0797199D01*
Y06272D01*
X0797599Y06268D01*
X0797199Y06264D01*
Y0626D01*
Y06327D02*
X0797599D01*
X0797999Y06331D01*
X0798399Y06327D01*
X0798799D01*
Y06331D01*
X0798399Y06335D01*
X0798799Y06339D01*
Y06343D01*
X0798399D01*
X0797999Y06339D01*
X0797599Y06343D01*
X0797199D01*
Y06339D01*
X0797599Y06335D01*
X0797199Y06331D01*
Y06327D01*
X0804869Y0754167D02*
X0805669Y0754967D01*
X0806469Y0754167D01*
X0805669Y0753367D01*
X0804869Y0754167D01*
X0819633Y0760269D02*
X0820433Y0761069D01*
X0821233Y0760269D01*
X0820433Y0759469D01*
X0819633Y0760269D01*
X0813531Y0775033D02*
X0814331Y0775833D01*
X0815131Y0775033D01*
X0814331Y0774233D01*
X0813531Y0775033D01*
X0798767Y0768931D02*
X0799567Y0769731D01*
X0800367Y0768931D01*
X0799567Y0768131D01*
X0798767Y0768931D01*
X0819633D02*
X0820433Y0769731D01*
X0821233Y0768931D01*
X0820433Y0768131D01*
X0819633Y0768931D01*
X0804869Y0775033D02*
X0805669Y0775833D01*
X0806469Y0775033D01*
X0805669Y0774233D01*
X0804869Y0775033D01*
X0798767Y0760269D02*
X0799567Y0761069D01*
X0800367Y0760269D01*
X0799567Y0759469D01*
X0798767Y0760269D01*
X0813531Y0754167D02*
X0814331Y0754967D01*
X0815131Y0754167D01*
X0814331Y0753367D01*
X0813531Y0754167D01*
X0504531D02*
X0505331Y0754967D01*
X0506131Y0754167D01*
X0505331Y0753367D01*
X0504531Y0754167D01*
X0489767Y0760269D02*
X0490567Y0761069D01*
X0491367Y0760269D01*
X0490567Y0759469D01*
X0489767Y0760269D01*
X0495869Y0775033D02*
X0496669Y0775833D01*
X0497469Y0775033D01*
X0496669Y0774233D01*
X0495869Y0775033D01*
X0510633Y0768931D02*
X0511433Y0769731D01*
X0512233Y0768931D01*
X0511433Y0768131D01*
X0510633Y0768931D01*
X0489767D02*
X0490567Y0769731D01*
X0491367Y0768931D01*
X0490567Y0768131D01*
X0489767Y0768931D01*
X0504531Y0775033D02*
X0505331Y0775833D01*
X0506131Y0775033D01*
X0505331Y0774233D01*
X0504531Y0775033D01*
X0510633Y0760269D02*
X0511433Y0761069D01*
X0512233Y0760269D01*
X0511433Y0759469D01*
X0510633Y0760269D01*
X0495869Y0754167D02*
X0496669Y0754967D01*
X0497469Y0754167D01*
X0496669Y0753367D01*
X0495869Y0754167D01*
D151*
X0611Y06154D02*
G03*
X0611Y06154I-00008J0D01*
G01*
X0601D02*
G03*
X0601Y06154I-00008J0D01*
G01*
X0611Y06054D02*
G03*
X0611Y06054I-00008J0D01*
G01*
X0601D02*
G03*
X0601Y06054I-00008J0D01*
G01*
X0591Y06154D02*
G03*
X0591Y06154I-00008J0D01*
G01*
Y06054D02*
G03*
X0591Y06054I-00008J0D01*
G01*
X0661274Y07624D02*
G03*
X0661274Y07624I-00008J0D01*
G01*
Y07524D02*
G03*
X0661274Y07524I-00008J0D01*
G01*
Y07424D02*
G03*
X0661274Y07424I-00008J0D01*
G01*
X05998Y0637D02*
G03*
X05998Y0637I-00008J0D01*
G01*
X05898D02*
G03*
X05898Y0637I-00008J0D01*
G01*
X06098D02*
G03*
X06098Y0637I-00008J0D01*
G01*
X06198D02*
G03*
X06198Y0637I-00008J0D01*
G01*
M02*
